<svg width="112" height="82" viewBox="0 0 112 82" fill="none" xmlns="http://www.w3.org/2000/svg">
<g clip-path="url(#clip0_233_2687)">
<path d="M19.9384 79.6291C19.756 79.9717 19.6046 80.2498 19.4778 80.5511C18.8658 82.1247 18.8595 83.7057 19.1652 85.3464C19.61 87.6306 20.6481 89.7243 21.983 91.7226C24.2014 95.0165 27.1369 97.8624 30.5205 100.335C35.5325 104.007 41.1906 106.745 47.4358 108.633C50.9462 109.684 54.506 110.408 58.2143 110.524C59.5555 110.568 60.8782 110.501 62.2039 110.391C62.9734 110.318 63.7304 110.048 64.4844 109.822C64.7533 109.747 65.0222 109.672 65.2201 109.858C65.3405 110.017 65.4551 110.265 65.4425 110.44C65.3869 110.854 65.0252 111.122 64.5957 111.233C63.7334 111.498 62.8928 111.83 61.9907 111.918C60.529 112.088 59.0486 112.147 57.5497 112.095C54.7038 112.087 51.8638 111.618 49.1199 110.913C39.5433 108.422 31.3329 104.131 24.6894 97.8083C21.7261 94.983 19.3655 91.8357 18.0123 88.2328C16.8383 85.0782 16.5049 81.9649 18.2573 78.7999C17.9792 78.6327 17.698 78.5089 17.4447 78.3645C14.1135 76.6417 10.9586 74.6636 8.17139 72.3301C5.45836 70.0665 3.13164 67.558 1.65479 64.5861C1.19443 63.6409 0.842239 62.6574 0.595111 61.6787C-0.513814 56.8576 1.98352 52.851 7.29897 50.7396C9.2243 49.9774 11.2577 49.5501 13.3591 49.2798C17.4538 48.7781 21.5546 48.9353 25.6336 49.3991C26.7585 49.5203 27.8524 49.7056 29.002 49.85C29.2368 49.8835 29.447 49.8938 29.7869 49.9325C29.7035 49.6209 29.6448 49.3324 29.583 49.0878C28.9312 46.7495 28.7306 44.3673 29.2932 42.0006C29.9765 39.047 31.6547 36.5594 34.5289 34.6797C36.241 33.5776 38.1108 32.8567 40.1997 32.3881C43.494 31.6493 46.8438 31.616 50.2216 31.9356C50.6666 31.9794 51.1116 32.0232 51.6336 32.0928C51.6553 31.7863 51.6494 31.5005 51.6678 31.2378C51.7514 28.5622 52.6108 26.1003 54.7093 24.0068C56.2145 22.4772 58.1336 21.4292 60.3216 20.68C63.1307 19.7196 66.0293 19.3567 69.0362 19.3286C73.2049 19.2696 77.2779 19.821 81.2675 20.8076C81.5795 20.8668 81.9162 20.9493 82.3056 21.0343C82.3026 20.7046 82.2934 20.4626 82.2872 20.1767C82.1236 17.2693 82.1177 14.3696 82.6371 11.4957C82.8629 10.1669 83.2184 8.86641 83.6265 7.5685C83.9046 6.6157 84.4177 5.69639 85.1596 4.89812C85.7037 4.28782 86.1951 4.04836 86.9395 3.95312C86.9366 3.9969 86.9583 4.06387 86.9583 4.06387C86.0466 4.6561 85.5921 5.49045 85.2399 6.37373C84.6958 7.73084 84.4391 9.124 84.2877 10.5224C83.8763 14.1045 83.9378 17.7098 84.2372 21.3048C84.2586 21.3718 84.2803 21.4387 84.2958 21.5932C84.5275 21.6705 84.7839 21.771 85.0683 21.8508C91.9252 24.0325 98.0809 27.1902 103.426 31.3624C106.276 33.567 108.763 36.0394 110.453 38.9778C111.065 40.0183 111.491 41.0716 111.754 42.2047C111.93 43.07 111.948 43.9275 111.756 44.7747C111.281 46.6622 109.927 47.9139 107.727 48.4646C106.197 48.851 104.673 48.7762 103.11 48.5235C99.9053 47.9931 97.118 46.7797 94.5715 45.1394C88.929 41.4356 85.3419 36.6249 83.884 30.7765C83.3093 28.4639 83.0312 26.056 82.6176 23.7074C82.5837 23.4421 82.5494 23.1769 82.5155 22.9116C82.4135 22.8627 82.3641 22.8164 82.2868 22.7906C77.5527 21.5258 72.701 20.8044 67.7009 21.0642C64.8705 21.2108 62.1756 21.6715 59.6446 22.7993C55.4788 24.6815 53.2812 28.176 53.6702 32.3685C53.9299 32.4252 54.2666 32.5076 54.5786 32.5668C60.7405 33.7699 66.4511 35.7635 71.6394 38.8078C73.7903 40.0775 75.7739 41.4709 77.4178 43.1989C78.3756 44.1905 79.2501 45.2437 79.6917 46.4515C79.9606 47.1238 80.1459 47.8575 80.1492 48.5607C80.1923 50.1881 79.1012 51.4527 77.2653 52.0653C76.2148 52.3872 75.127 52.4878 74.0238 52.4333C72.1326 52.3404 70.3185 51.9002 68.5975 51.2667C64.5368 49.7932 61.1346 47.5835 58.2736 44.8072C55.0659 41.7063 52.8351 38.2142 51.9643 34.1298C51.9426 34.0628 51.9209 33.9959 51.8778 33.862C51.6428 33.8285 51.3831 33.7718 51.1484 33.7383C48.4042 33.4059 45.6168 33.313 42.8512 33.6605C40.697 33.9282 38.6821 34.4663 36.8218 35.4293C34.2784 36.7321 32.5909 38.6042 31.713 40.9552C31.0052 42.7657 30.8196 44.6455 31.1068 46.5488C31.2674 47.6328 31.5886 48.6812 31.8296 49.7472C31.9284 50.2132 32.256 50.4272 32.8277 50.5429C36.7275 51.3054 40.5036 52.3257 44.1839 53.5825C49.8234 55.463 55.2497 57.7501 60.1787 60.7375C62.5797 62.1955 64.7858 63.7975 66.6242 65.7545C67.5297 66.7436 68.2991 67.7916 68.6605 69.0174C69.2318 71.0003 68.1441 72.5946 65.808 73.2046C65.1619 73.3924 64.4697 73.4904 63.7835 73.5007C62.702 73.5136 61.6514 73.4621 60.6067 73.3228C58.2831 73.0108 56.0365 72.3515 53.9074 71.5223C46.4139 68.6502 40.1441 64.4984 35.2403 58.9204C33.4358 56.855 31.9342 54.6066 30.8373 52.2244C30.6767 51.887 30.5098 51.6372 29.9876 51.5676C25.8189 50.8799 21.6626 50.3904 17.4103 50.5112C14.9814 50.5675 12.5926 50.8018 10.2841 51.3912C8.94291 51.7209 7.64493 52.1843 6.49219 52.8307C3.50377 54.4629 2.07583 56.7651 2.10335 59.7319C2.13714 61.8643 2.9744 63.8162 4.1609 65.6757C5.75213 68.1478 7.89656 70.2522 10.3717 72.1529C12.921 74.1229 15.702 75.7971 18.6809 77.283C18.8323 77.3784 18.9868 77.43 19.1938 77.4841C19.3607 77.3604 19.5245 77.2808 19.6389 77.1545C21.1069 75.7768 22.887 74.832 25.0039 74.3428C26.3976 74.0157 27.8408 73.735 29.2716 73.6297C35.3903 73.2053 41.1659 74.2794 46.583 76.6981C47.8343 77.2646 49.0241 77.9601 49.9634 78.8408C50.26 79.1189 50.5568 79.397 50.8254 79.6958C52.4045 81.5965 51.7923 83.5433 49.3943 84.6557C48.3869 85.1114 47.2899 85.3431 46.1741 85.4639C44.4189 85.6853 42.6294 85.6414 40.8219 85.4867C36.2884 85.1106 31.9344 84.0619 27.741 82.6043C25.3987 81.8083 23.1491 80.8193 20.8654 79.9385C20.5255 79.8998 20.2443 79.7761 19.9384 79.6291ZM84.3201 23.4835C84.4406 24.39 84.5426 25.1857 84.6693 26.0046C85.0893 28.6391 85.5895 31.2556 86.7049 33.7485C88.8708 38.5334 92.4181 42.4195 97.5722 45.1987C99.4758 46.2368 101.559 46.9757 103.833 47.2413C104.93 47.3831 106.009 47.414 107.109 47.1385C108.666 46.7318 109.674 45.9027 109.903 44.5298C110.001 43.876 110.051 43.1753 109.859 42.5289C109.609 41.5943 109.254 40.6543 108.762 39.7734C107.357 37.2882 105.293 35.1661 102.951 33.25C97.8429 29.0675 91.8972 25.9201 85.2535 23.705C84.9939 23.6483 84.7065 23.6122 84.3201 23.4835ZM32.7873 52.2325C32.8769 52.4565 32.8954 52.567 32.9665 52.6804C33.8965 54.4393 35.0181 56.0981 36.3313 57.6558C39.6899 61.5987 43.8616 64.8569 48.7099 67.4891C51.9853 69.2532 55.4155 70.6957 59.207 71.4969C60.4277 71.7543 61.7103 71.8833 62.9712 71.9452C63.7591 71.9838 64.5596 71.8475 65.3383 71.6442C66.4662 71.348 66.9145 70.601 66.692 69.6459C66.5933 69.1795 66.3863 68.7522 66.1266 68.322C65.3972 67.078 64.3375 66.0378 63.1665 65.0797C61.3991 63.6092 59.4615 62.306 57.3541 61.17C49.9719 57.0956 41.9218 54.2622 33.3868 52.3275C33.257 52.2992 33.0747 52.2682 32.7873 52.2325ZM53.8275 34.2433C53.8647 34.4647 53.8522 34.6398 53.9203 34.7969C54.183 35.5566 54.3649 36.3344 54.7079 37.076C56.6605 41.521 60.0752 45.0492 64.6237 47.8207C66.8486 49.1597 69.2002 50.1977 71.8763 50.7466C73.0966 51.004 74.3266 51.1304 75.6029 50.9735C77.6797 50.6799 78.6286 49.5623 78.2238 47.8292C78.0013 46.8736 77.43 46.011 76.7747 45.2101C75.372 43.428 73.4687 42.0165 71.4228 40.7519C66.3211 37.6022 60.6137 35.5648 54.4795 34.3411C54.3251 34.2896 54.1148 34.2793 53.8275 34.2433ZM20.844 78.3778C21.0726 78.499 21.224 78.594 21.3507 78.6662C26.4371 80.9147 31.7676 82.692 37.4197 83.6505C39.7898 84.0523 42.1693 84.3227 44.6046 84.1787C45.689 84.1223 46.8077 83.9577 47.8306 83.6563C50.0371 83.0176 50.3926 81.7173 48.8911 80.2159C47.9301 79.2681 46.7403 78.5726 45.4363 78.0035C40.6035 75.8991 35.4798 74.923 30.0347 75.1388C28.026 75.2158 26.0791 75.5378 24.2373 76.238C22.964 76.7246 21.836 77.3943 20.844 78.3778Z" fill="#FFF7EE"/>
</g>
<defs>
<clipPath id="clip0_233_2687">
<rect width="111.981" height="76.25" fill="white" transform="translate(0.00976562 3.6875)"/>
</clipPath>
</defs>
</svg>
