<svg width="128" height="160" viewBox="0 0 128 160" fill="none" xmlns="http://www.w3.org/2000/svg">
<g clip-path="url(#clip0_233_3388)">
<path d="M127.504 22.6449C127.541 29.2951 126.159 35.658 123.844 41.7745C121.38 48.4247 118.057 54.5002 114.063 60.1649C108.76 67.6363 102.974 74.6149 96.9624 81.3884C88.6739 90.748 79.8251 99.3684 70.6778 107.702C60.8212 116.692 50.7779 125.436 40.3239 133.605C30.5045 141.322 20.1252 147.931 8.99902 153.104C4.44405 155.198 -0.1856 157.045 -5.03927 158.03C-8.13812 158.687 -11.2744 159.179 -14.4852 158.933C-16.9495 158.769 -19.227 157.948 -21.3177 156.511C-23.7072 154.91 -24.9766 152.611 -25.126 149.573C-25.238 147.808 -25.2007 146.002 -24.902 144.278C-23.8939 138.531 -22.6245 132.866 -20.6084 127.447C-18.3309 121.33 -15.568 115.46 -12.4691 109.796C-5.97267 97.9317 1.34517 86.7252 9.26039 75.9284C20.3492 60.781 32.4833 46.7006 45.8869 34.0159C56.8264 23.6301 68.7741 14.9684 81.879 8.23612C87.8528 5.15732 94.0132 2.77638 100.51 1.33961C104.28 0.518597 108.089 0.149141 111.897 0.641751C114.063 0.929106 116.191 1.50381 118.169 2.53008C121.716 4.29525 124.181 7.16882 125.674 11.1097C126.757 13.9421 127.279 16.8978 127.466 19.8945C127.541 20.8797 127.504 21.7418 127.504 22.6449Z" fill="#FA8000"/>
<mask id="mask0_233_3388" style="mask-type:alpha" maskUnits="userSpaceOnUse" x="-26" y="0" width="154" height="159">
<path d="M127.504 22.6449C127.541 29.2951 126.159 35.658 123.844 41.7745C121.38 48.4247 118.057 54.5002 114.063 60.1649C108.76 67.6363 102.974 74.6149 96.9624 81.3884C88.6739 90.748 79.8251 99.3684 70.6778 107.702C60.8212 116.692 50.7779 125.436 40.3239 133.605C30.5045 141.322 20.1252 147.931 8.99902 153.104C4.44405 155.198 -0.1856 157.045 -5.03927 158.03C-8.13812 158.687 -11.2744 159.179 -14.4852 158.933C-16.9495 158.769 -19.227 157.948 -21.3177 156.511C-23.7072 154.91 -24.9766 152.611 -25.126 149.573C-25.238 147.808 -25.2007 146.002 -24.902 144.278C-23.8939 138.531 -22.6245 132.866 -20.6084 127.447C-18.3309 121.33 -15.568 115.46 -12.4691 109.796C-5.97267 97.9317 1.34517 86.7252 9.26039 75.9284C20.3492 60.781 32.4833 46.7006 45.8869 34.0159C56.8264 23.6301 68.7741 14.9684 81.879 8.23612C87.8528 5.15732 94.0132 2.77638 100.51 1.33961C104.28 0.518597 108.089 0.149141 111.897 0.641751C114.063 0.929106 116.191 1.50381 118.169 2.53008C121.716 4.29525 124.181 7.16882 125.674 11.1097C126.757 13.9421 127.279 16.8978 127.466 19.8945C127.541 20.8797 127.504 21.7418 127.504 22.6449Z" fill="black"/>
</mask>
<g mask="url(#mask0_233_3388)">
<path d="M-5.20879 143.385C-5.35813 144.616 -5.54481 145.848 -5.69416 147.079C-6.73955 155.33 -8.75567 163.377 -11.3692 171.217C-11.5932 171.874 -11.8919 172.49 -12.2279 173.065C-12.3399 173.27 -12.7133 173.475 -12.9 173.393C-13.124 173.352 -13.2733 172.982 -13.6094 172.572C-12.6013 172.695 -12.452 172.079 -12.3026 171.505C-10.2491 164.649 -8.34502 157.753 -7.18758 150.61C-6.73955 147.818 -6.40354 145.027 -5.99283 142.236C-5.91817 141.62 -5.99283 141.086 -6.21687 140.511C-8.9424 133.82 -11.1079 126.883 -12.4147 119.616C-13.236 115.224 -13.7587 110.831 -13.572 106.316C-13.5347 105.536 -13.4227 104.756 -13.1987 104.017C-12.8253 102.745 -11.8173 102.416 -10.8838 103.278C-10.2864 103.853 -9.76377 104.633 -9.31573 105.413C-8.1583 107.425 -7.44895 109.641 -6.81425 111.94C-5.76883 115.758 -5.17145 119.658 -4.79809 123.64C-4.4994 126.965 -4.3874 130.249 -4.46207 133.574C-4.4994 135.462 -4.64875 137.392 -4.79809 139.28C-4.83543 139.937 -4.76075 140.552 -4.4994 141.168C-2.96863 144.739 -1.28851 148.229 0.727629 151.472C1.81037 153.237 3.00512 154.92 4.42388 156.398C5.39462 157.424 6.44005 158.368 7.63475 159.025C9.46421 160.011 11.2937 160.093 13.1605 159.231C14.4299 158.656 15.5126 157.835 16.5207 156.85C18.2382 155.167 19.6196 153.237 20.889 151.143C23.9506 146.053 26.0787 140.511 27.5722 134.682C28.0202 132.999 28.3189 131.316 28.7296 129.633C28.8043 129.264 28.7669 128.935 28.5802 128.607C24.9586 122.162 22.6811 115.06 20.777 107.835C18.9476 100.815 17.6408 93.6727 16.6328 86.4889C15.9234 81.2753 15.326 76.0211 14.7286 70.7662C14.3553 67.4414 14.1685 64.0753 14.2806 60.7499C14.3179 59.7647 14.4672 58.7795 14.654 57.8353C14.7286 57.3838 14.9526 56.9733 15.1766 56.6038C15.662 55.8239 16.446 55.4955 17.2301 55.8649C17.8648 56.1523 18.5369 56.5628 19.0222 57.0964C19.8436 58.0406 20.6277 59.0669 21.2624 60.1344C23.3159 63.4592 24.772 67.1537 26.0787 70.8894C28.3562 77.5396 29.8497 84.4363 30.7831 91.4555C31.7538 98.8038 32.1645 106.152 31.9404 113.541C31.7911 118.385 31.3057 123.229 30.4844 128.032C30.4097 128.442 30.3724 128.853 30.6337 129.264C31.9778 131.439 33.4712 133.492 35.3754 135.093C35.9728 135.626 36.6448 136.078 37.3169 136.489C39.8183 137.966 42.3945 138.007 44.9707 136.653C46.6881 135.749 48.1069 134.395 49.3763 132.835C50.8698 130.987 52.1019 128.935 53.1846 126.759C55.6861 121.751 57.3663 116.373 58.673 110.873C60.8757 101.636 61.9959 92.1948 62.1826 82.63C62.1826 82.1785 62.0707 81.645 61.8841 81.2341C56.2835 69.7811 52.5872 57.589 49.8991 44.9865C49.2643 42.0309 48.779 38.9931 48.555 35.9553C48.443 34.3133 48.443 32.6713 48.8163 31.0703C48.9283 30.6188 49.115 30.1262 49.339 29.7156C50.0484 28.402 51.2431 28.0326 52.4006 28.8536C52.9979 29.3052 53.5953 29.8388 54.0434 30.4956C54.7901 31.604 55.4621 32.7945 56.0222 33.9849C57.8516 37.9258 59.0837 42.1129 60.1293 46.3412C61.9959 54.0587 63.1162 61.9407 63.5642 69.945C63.7508 73.4756 63.7878 77.0468 63.9003 80.5774C63.9003 80.9877 63.9744 81.4392 64.1617 81.8088C65.9906 85.3394 68.0816 88.7468 70.7323 91.5788C72.599 93.5908 74.6529 95.2325 77.117 96.1769C78.8342 96.8336 80.589 97.08 82.4186 96.7924C84.5843 96.4227 86.3391 95.3145 87.8696 93.6314C89.2135 92.1535 90.259 90.4705 91.1556 88.6236C92.9845 84.8466 94.1795 80.8238 95.0755 76.7184C96.6437 69.4934 97.3901 62.1865 97.6144 54.7566C97.6515 53.484 97.6515 52.2114 97.6892 50.8978C97.6892 50.4052 97.5396 50.0357 97.2035 49.7073C89.9606 41.9077 85.5173 32.466 83.6883 21.5056C82.9042 16.7026 82.7547 11.8586 83.6506 7.01463C83.8749 5.74208 84.2852 4.46951 84.7332 3.27904C84.9946 2.58118 85.4431 1.88332 85.9282 1.34966C86.8618 0.282344 88.1687 0.118141 89.2883 0.939155C89.9976 1.47281 90.6699 2.12962 91.1179 2.90958C91.9391 4.30531 92.7232 5.78313 93.3207 7.30201C94.926 11.2429 95.8967 15.43 96.7185 19.6172C98.548 28.9767 99.3692 38.4184 99.4811 47.9832C99.4811 48.7632 99.7054 49.2968 100.265 49.8305C103.924 53.1966 108.18 55.126 112.847 56.1112C116.544 56.8912 120.315 57.1375 124.086 57.2606C126.774 57.3427 129.462 57.3427 132.15 57.2606C133.531 57.2196 134.951 57.0554 136.332 56.8501C137.153 56.727 137.975 56.4807 138.609 55.6186C138.609 56.3165 138.348 56.6859 137.937 56.8912C137.265 57.2606 136.593 57.6301 135.884 57.8353C133.756 58.4922 131.515 58.6563 129.312 58.7385C124.496 58.9437 119.68 58.7795 114.901 58.369C109.45 57.8764 104.447 56.0702 100.041 52.3756C99.892 52.2525 99.7424 52.1703 99.4811 52.0062C99.444 52.4577 99.444 52.8272 99.4063 53.1556C99.2945 59.149 98.8465 65.101 97.9129 70.9713C97.1288 75.9385 96.0462 80.8238 94.3291 85.4626C93.582 87.474 92.7608 89.4441 91.6406 91.2504C90.8942 92.4412 90.1101 93.5908 89.1765 94.6165C85.8534 98.3522 81.8211 99.4198 77.2666 98.0651C74.8766 97.3671 72.8233 96.0125 70.9566 94.2881C68.3429 91.8664 66.252 88.9519 64.423 85.8316C64.2735 85.5858 64.124 85.3394 63.9744 85.093C63.9374 85.0517 63.8626 85.0517 63.7508 84.9698C63.676 86.2832 63.6012 87.5972 63.5265 88.8694C62.78 99.625 61.0623 110.175 57.5902 120.274C56.5075 123.475 55.1634 126.554 53.5206 129.469C52.3259 131.603 50.9818 133.615 49.227 135.257C48.2936 136.16 47.2855 136.981 46.1655 137.638C42.8426 139.649 39.4823 139.526 36.1967 137.474C34.106 136.16 32.3885 134.313 30.895 132.26C30.5964 131.85 30.2977 131.439 29.9243 130.947C29.8123 131.398 29.7003 131.727 29.6256 132.055C28.2069 138.459 26.1534 144.616 23.0172 150.281C21.6358 152.744 20.105 155.084 18.2382 157.137C17.0434 158.409 15.774 159.518 14.2432 160.298C11.5924 161.694 8.97885 161.57 6.44005 159.969C4.98392 159.066 3.75184 157.876 2.63176 156.562C0.876973 154.51 -0.616468 152.252 -1.88589 149.871C-2.89396 148.024 -3.79002 146.094 -4.76075 144.206C-4.9101 143.919 -5.02211 143.631 -5.17145 143.344C-5.09678 143.344 -5.13412 143.344 -5.20879 143.385ZM29.2149 126.513C29.3269 126.226 29.3643 126.103 29.4016 125.979C29.9616 122.408 30.2977 118.836 30.4844 115.224C30.8204 108.451 30.5217 101.718 29.8123 94.9861C29.0283 87.8436 27.6842 80.865 25.5934 74.0916C24.2493 69.7398 22.6065 65.5119 20.3663 61.6117C19.8063 60.6266 19.1342 59.6826 18.4248 58.7795C18.1261 58.369 17.6781 57.9996 17.2675 57.7122C16.7447 57.3427 16.4834 57.4249 16.2967 58.0816C16.11 58.6974 15.998 59.3542 15.9607 60.0112C15.662 63.9108 15.9607 67.8104 16.4087 71.7106C17.0061 77.2525 17.7155 82.7939 18.4995 88.2952C19.5076 95.3964 20.8891 102.416 22.7932 109.313C24.3239 114.937 26.1534 120.396 28.6922 125.569C28.8043 125.774 28.9536 126.061 29.2149 126.513ZM97.6515 46.998C97.6892 46.5464 97.6892 46.3001 97.6892 46.0128C97.4649 36.9406 96.5689 27.9505 94.7394 19.0836C93.9552 15.1837 92.9845 11.325 91.454 7.67146C90.9313 6.43992 90.259 5.24947 89.5873 4.10005C89.326 3.60744 88.878 3.19694 88.4671 2.86854C88.0191 2.49908 87.6459 2.54013 87.2721 2.95064C87.0484 3.19694 86.8241 3.52534 86.7123 3.8127C86.3762 4.67477 86.04 5.57788 85.8534 6.48101C84.9946 10.504 84.9575 14.609 85.4431 18.7141C86.6375 29.0999 90.4833 38.2132 96.7932 46.0128C97.0169 46.3412 97.2783 46.5875 97.6515 46.998ZM62.1078 77.5396C62.1455 77.5396 62.2196 77.4984 62.2573 77.4984C62.2573 77.3757 62.2944 77.2525 62.2944 77.1293C62.1078 67.0305 61.0252 57.0554 58.7104 47.2443C57.7396 43.0982 56.5448 39.0342 54.8274 35.2164C54.2673 33.9849 53.5953 32.8355 52.8859 31.6861C52.5872 31.1935 52.1019 30.783 51.6538 30.4135C51.2805 30.1262 50.9818 30.2083 50.7578 30.6598C50.5338 31.1524 50.3844 31.6861 50.3097 32.2608C49.9737 34.5186 50.2724 36.7763 50.5711 39.0342C51.2431 43.755 52.2885 48.4347 53.5206 53.0324C55.6488 61.1195 58.1876 69.0012 61.5851 76.5952C61.7717 76.8417 61.9583 77.17 62.1078 77.5396ZM-12.0039 103.935C-12.452 104.633 -12.4893 105.413 -12.5266 106.152C-12.6013 108.656 -12.4147 111.201 -12.116 113.705C-11.1079 121.915 -8.90502 129.756 -6.03015 137.392C-5.95551 137.597 -5.80616 137.802 -5.61948 138.172C-5.54481 137.104 -5.47014 136.324 -5.43281 135.503C-5.20879 130.084 -5.43281 124.666 -6.29152 119.329C-6.8889 115.552 -7.67294 111.817 -9.16639 108.287C-9.61442 107.178 -10.2118 106.152 -10.7719 105.126C-10.9958 104.592 -11.3692 104.141 -12.0039 103.935Z" fill="white"/>
</g>
</g>
<defs>
<clipPath id="clip0_233_3388">
<rect width="127.993" height="159.094" fill="white"/>
</clipPath>
</defs>
</svg>
