<svg width="1920" height="2205" viewBox="0 0 1920 2205" fill="none" xmlns="http://www.w3.org/2000/svg">
<g clip-path="url(#clip0_301_2)">
<rect width="1920" height="2204.67" fill="black"/>
<g filter="url(#filter0_f_301_2)">
<g clip-path="url(#clip1_301_2)">
<path d="M627.918 1030.25H1287.65V1190.72H621.381C621.381 1190.72 627.565 1035.29 627.918 1030.25Z" fill="url(#paint0_linear_301_2)"/>
<path d="M1832.72 995.561C1825.65 993.042 1819.47 990.104 1814.17 986.746C1792.96 973.455 1782.19 953.448 1782.19 926.725C1782.19 907.978 1787.13 870.343 1797.03 813.82C1801.97 789.477 1806.39 764.292 1810.46 737.99C1814.34 711.687 1816.46 688.462 1816.46 668.036C1816.46 595.983 1788.55 539.881 1732.54 499.867C1676.71 459.854 1601.09 439.986 1506.21 439.986H1435.89C1540.84 518.335 1543.31 637.816 1538.54 690.282C1538.54 691.121 1538.72 691.82 1538.72 692.66C1538.72 707.49 1534.83 742.467 1526.88 797.311C1518.05 867.824 1513.45 913.714 1513.45 934.84C1513.45 979.471 1526.53 1016.41 1552.85 1045.37C1579 1074.33 1618.93 1092.8 1672.29 1100.63V1103.01C1618.76 1110.85 1579 1129.31 1552.85 1158.27C1526.53 1187.24 1513.45 1224.17 1513.45 1268.8C1513.45 1289.93 1517.87 1335.82 1526.88 1406.33C1534.83 1461.18 1538.72 1496.43 1538.72 1512.1C1538.72 1533.23 1531.83 1549.32 1517.87 1560.23C1503.91 1571.14 1481.3 1576.74 1449.67 1576.74H1396.14V1763.66H1506.03C1601.09 1763.66 1676.53 1743.65 1732.36 1703.78C1788.19 1663.76 1816.29 1607.8 1816.29 1535.61C1816.29 1515.18 1814.34 1491.96 1810.28 1465.65C1806.39 1439.35 1801.8 1414.17 1796.85 1389.82C1786.96 1333.44 1782.01 1296.22 1782.01 1278.17C1782.01 1243.9 1801.09 1220.25 1839.08 1206.96C1890.14 1189.19 1920 1146.8 1920 1102.73V1097.41C1920.35 1052.5 1884.48 1014.17 1832.72 995.561Z" fill="#2B7EFF"/>
<path d="M381.455 1512.24C381.455 1496.57 385.342 1461.32 393.293 1406.47C402.127 1335.96 406.72 1290.07 406.72 1268.94C406.72 1224.31 393.646 1187.37 367.32 1158.41C340.995 1129.45 301.242 1110.99 247.884 1103.15V1100.77C301.418 1092.94 341.172 1074.47 367.32 1045.51C393.469 1016.55 406.72 979.611 406.72 934.98C406.72 913.854 402.303 867.964 393.293 797.451C385.342 742.607 381.455 707.77 381.455 692.8C381.455 670.834 388.346 654.465 402.303 643.412C416.261 632.499 438.876 626.903 470.679 626.903H524.037V439.986H414.141C319.086 439.986 243.644 459.994 187.812 499.867C131.981 539.881 103.889 595.843 103.889 668.036C103.889 688.462 105.832 711.687 109.896 737.99C113.783 764.292 118.2 789.477 123.324 813.82C133.218 870.203 138.165 907.838 138.165 926.725C138.165 953.448 127.564 973.315 106.185 986.746C100.885 990.104 94.7012 993.042 87.634 995.561C35.8664 1014.17 0 1052.5 0 1097.41V1102.73C0 1146.8 30.0359 1189.33 80.9201 1206.96C118.906 1220.11 137.988 1243.9 137.988 1278.17C137.988 1296.22 133.041 1333.44 123.147 1389.82C118.2 1414.17 113.783 1439.35 109.719 1465.65C105.832 1491.96 103.712 1515.18 103.712 1535.61C103.712 1607.66 131.628 1663.76 187.636 1703.78C243.467 1743.79 319.086 1763.66 413.964 1763.66H437.11C374.034 1644.04 381.455 1512.24 381.455 1512.24Z" fill="#2B7EFF"/>
<path d="M1435.89 440.135H1396.31V441.393C1284.47 448.249 907.788 512.887 835.172 1067.34C774.747 1527.92 483.222 1573.67 470.855 1575.49L473.328 1575.21L473.682 1577.03H470.501C438.875 1577.03 416.084 1571.57 402.126 1560.52C388.345 1549.61 381.277 1533.52 381.277 1512.39C381.277 1512.39 373.857 1644.32 437.109 1763.94H507.074L523.859 1762.83C611.493 1748.55 1006.73 1653.7 1080.94 1087.63C1136.59 663.287 1381.12 629.43 1413.63 627.191H1449.49C1481.12 627.191 1503.91 632.648 1517.69 643.7C1530.94 654.193 1537.66 670.003 1538.19 690.569C1543.31 637.964 1540.84 518.343 1435.89 440.135Z" fill="url(#paint1_linear_301_2)"/>
</g>
</g>
</g>
<defs>
<filter id="filter0_f_301_2" x="-180" y="-180" width="2280" height="2564.67" filterUnits="userSpaceOnUse" color-interpolation-filters="sRGB">
<feFlood flood-opacity="0" result="BackgroundImageFix"/>
<feBlend mode="normal" in="SourceGraphic" in2="BackgroundImageFix" result="shape"/>
<feGaussianBlur stdDeviation="90" result="effect1_foregroundBlur_301_2"/>
</filter>
<linearGradient id="paint0_linear_301_2" x1="1528.08" y1="421.174" x2="1360.65" y2="743.885" gradientUnits="userSpaceOnUse">
<stop stop-color="#94694C"/>
<stop offset="1" stop-color="#FA8000"/>
</linearGradient>
<linearGradient id="paint1_linear_301_2" x1="1188.16" y1="657.802" x2="849.207" y2="1708.83" gradientUnits="userSpaceOnUse">
<stop stop-color="#F04E23"/>
<stop offset="0.0274" stop-color="#F35B1A"/>
<stop offset="0.0782" stop-color="#F66C0E"/>
<stop offset="0.1415" stop-color="#F87706"/>
<stop offset="0.2302" stop-color="#FA7E01"/>
<stop offset="0.4766" stop-color="#FA8000"/>
<stop offset="0.6984" stop-color="#FA7E00"/>
<stop offset="0.8087" stop-color="#FB7600"/>
<stop offset="0.8943" stop-color="#FC6900"/>
<stop offset="0.9668" stop-color="#FE5600"/>
<stop offset="1" stop-color="#FF4B00"/>
</linearGradient>
<clipPath id="clip0_301_2">
<rect width="1920" height="2204.67" fill="white"/>
</clipPath>
<clipPath id="clip1_301_2">
<rect width="1920" height="1325" fill="white" transform="translate(0 439.828)"/>
</clipPath>
</defs>
</svg>
