<?xml version="1.0" standalone="no"?>
<!DOCTYPE svg PUBLIC "-//W3C//DTD SVG 20010904//EN"
 "http://www.w3.org/TR/2001/REC-SVG-20010904/DTD/svg10.dtd">
<svg version="1.0" xmlns="http://www.w3.org/2000/svg"
 width="439.000000pt" height="350.000000pt" viewBox="0 0 439.000000 350.000000"
 preserveAspectRatio="xMidYMid meet">
<metadata>
Created by potrace 1.16, written by Peter Selinger 2001-2019
</metadata>
<g transform="translate(0.000000,350.000000) scale(0.100000,-0.100000)"
fill="#FFF" stroke="none">
<path d="M783 3486 c-66 -21 -124 -59 -180 -118 -101 -108 -123 -183 -123
-428 0 -481 -85 -810 -249 -963 -55 -52 -133 -93 -194 -103 l-37 -7 0 -117 0
-117 41 -7 c22 -4 63 -18 91 -32 231 -117 348 -465 348 -1034 0 -192 11 -257
57 -342 36 -65 130 -153 200 -186 l58 -27 1400 0 1400 0 58 27 c66 31 158 114
194 176 52 89 63 148 63 350 1 388 55 675 160 853 67 113 179 199 279 215 l41
7 0 117 0 117 -38 7 c-69 11 -158 63 -216 127 -151 168 -225 475 -226 941 0
202 -11 261 -63 350 -36 62 -128 145 -194 176 l-58 27 -1385 2 c-1126 1 -1393
-1 -1427 -11z m1686 -830 c186 -48 324 -177 360 -337 24 -104 3 -228 -53 -318
-54 -84 -193 -181 -262 -181 -9 0 -14 -5 -12 -12 2 -6 32 -17 65 -24 142 -29
259 -117 320 -242 35 -69 38 -83 41 -178 4 -84 0 -116 -17 -172 -49 -162 -170
-275 -355 -331 -104 -32 -282 -42 -671 -39 l-350 3 -3 915 c-1 503 0 921 3
928 8 22 846 11 934 -12z"/>
<path d="M1820 2164 l0 -287 228 6 c234 6 288 14 367 55 52 26 100 77 120 126
22 52 22 170 0 221 -23 58 -81 112 -145 137 -51 21 -75 23 -312 26 l-258 3 0
-287z"/>
<path d="M1820 1360 l0 -310 243 0 c318 0 417 21 499 102 59 60 73 100 73 213
0 83 -4 107 -22 140 -29 55 -68 89 -134 119 -86 40 -142 46 -410 46 l-249 0 0
-310z"/>
</g>
</svg>
