<?xml version="1.0" standalone="no"?>
<!DOCTYPE svg PUBLIC "-//W3C//DTD SVG 20010904//EN"
 "http://www.w3.org/TR/2001/REC-SVG-20010904/DTD/svg10.dtd">
<svg version="1.0" xmlns="http://www.w3.org/2000/svg"
 width="1200.000000pt" height="1693.000000pt" viewBox="0 0 1200.000000 1693.000000"
 preserveAspectRatio="xMidYMid meet">
<metadata>
Created by potrace 1.16, written by Peter Selinger 2001-2019
</metadata>
<g transform="translate(0.000000,1693.000000) scale(0.100000,-0.100000)"
fill="#FFF" stroke="none">
<path d="M2820 15785 l0 -1145 913 2 912 3 3 383 2 382 -530 0 -530 0 0 375 0
375 528 2 527 3 3 383 2 382 -915 0 -915 0 0 -1145z"/>
<path d="M5000 16185 l0 -745 530 0 530 0 0 -65 0 -65 -530 0 -530 0 0 -350 0
-350 915 0 915 0 0 765 0 765 -530 0 -530 0 0 60 0 60 530 0 530 0 0 335 0
335 -915 0 -915 0 0 -745z"/>
<path d="M7180 16185 l0 -745 530 0 530 0 0 -65 0 -65 -530 0 -530 0 0 -350 0
-350 915 0 915 0 0 765 0 765 -530 0 -530 0 0 60 0 60 530 0 530 0 0 335 0
335 -915 0 -915 0 0 -745z"/>
<path d="M0 13583 c-1 -34 1079 -12180 1085 -12208 4 -18 284 -98 2432 -695
1335 -370 2441 -676 2456 -678 18 -3 937 247 2478 674 2151 596 2450 681 2454
699 2 11 247 2754 544 6095 298 3341 543 6090 545 6108 l5 32 -6000 0 -5999 0
0 -27z m9750 -2505 c0 -22 -71 -821 -489 -5502 -104 -1165 -193 -2122 -198
-2126 -11 -10 -3047 -850 -3071 -850 -19 0 -3070 844 -3077 852 -2 2 -49 514
-104 1138 -56 624 -103 1154 -107 1178 l-5 42 755 0 c416 0 756 -1 757 -2 0
-2 24 -270 54 -596 29 -327 55 -595 57 -597 2 -2 377 -105 835 -228 l831 -225
833 225 c459 124 836 227 838 228 4 5 170 1857 171 1908 l0 37 -2600 0 -2600
0 0 25 c0 14 -29 351 -65 748 -36 397 -65 723 -65 725 0 1 1231 2 2735 2
l2735 0 0 25 c0 13 29 353 65 753 36 401 65 737 65 746 0 15 -221 16 -2867 18
l-2868 3 -61 680 c-34 374 -65 710 -69 748 l-6 67 3760 0 3761 0 0 -22z"/>
</g>
</svg>
