<?xml version="1.0" standalone="no"?>
<!DOCTYPE svg PUBLIC "-//W3C//DTD SVG 20010904//EN"
 "http://www.w3.org/TR/2001/REC-SVG-20010904/DTD/svg10.dtd">
<svg version="1.0" xmlns="http://www.w3.org/2000/svg"
 width="2048.000000pt" height="2048.000000pt" viewBox="0 0 2048.000000 2048.000000"
 preserveAspectRatio="xMidYMid meet">
<metadata>
Created by potrace 1.16, written by Peter Selinger 2001-2019
</metadata>
<g transform="translate(0.000000,2048.000000) scale(0.100000,-0.100000)"
fill="#FFF" stroke="none">
<path d="M4330 19095 l0 -1385 465 0 465 0 0 465 0 465 420 0 420 0 0 -465 0
-465 465 0 465 0 0 1385 0 1385 -465 0 -465 0 0 -455 0 -455 -420 0 -420 0 0
455 0 455 -465 0 -465 0 0 -1385z"/>
<path d="M7420 20020 l0 -460 405 0 405 0 2 -922 3 -923 468 -3 467 -2 0 925
0 925 405 0 405 0 0 460 0 460 -1280 0 -1280 0 0 -460z"/>
<path d="M10380 19095 l0 -1385 455 0 455 0 2 674 3 674 310 -479 c195 -301
315 -478 324 -477 8 2 154 220 325 484 l311 482 3 -679 2 -679 460 0 460 0 0
1385 0 1385 -487 -2 -487 -3 -268 -440 c-148 -242 -279 -457 -291 -477 l-22
-37 -291 477 -290 477 -487 3 -487 2 0 -1385z"/>
<path d="M13940 19095 l0 -1385 1120 0 1120 0 -2 463 -3 462 -647 3 -648 2 0
920 0 920 -470 0 -470 0 0 -1385z"/>
<path d="M2984 16403 c4 -32 301 -3365 662 -7407 360 -4043 656 -7351 658
-7354 2 -2 1333 -372 2958 -823 2196 -610 2962 -819 2988 -816 29 4 5922 1635
5926 1640 1 1 297 3312 658 7357 361 4045 659 7379 662 7408 l6 52 -7262 0
-7262 0 6 -57z m11796 -2995 c0 -28 -148 -1696 -156 -1755 l-5 -43 -3475 0
c-2773 0 -3474 -3 -3473 -12 0 -7 37 -425 82 -928 l83 -915 3310 -3 3310 -2
-7 -78 c-5 -42 -116 -1294 -249 -2782 -133 -1488 -245 -2708 -248 -2712 -4 -4
-842 -239 -1863 -522 l-1856 -514 -1859 516 c-1022 284 -1860 516 -1861 516
-2 1 -253 2809 -253 2835 l0 21 910 0 c721 0 910 -3 910 -12 2 -81 130 -1432
136 -1438 5 -4 461 -129 1012 -278 l1004 -271 1009 273 c555 150 1011 275
1014 278 6 5 216 2340 212 2345 -2 1 -1418 6 -3148 9 l-3144 7 -243 2731
c-134 1502 -243 2737 -243 2744 1 9 917 12 4546 12 l4545 0 0 -22z"/>
</g>
</svg>
