<svg width="34" height="33" viewBox="0 0 34 33" fill="none" xmlns="http://www.w3.org/2000/svg">
<path d="M17.0002 0.333496C14.8115 0.333496 12.6442 0.764592 10.6221 1.60217C8.60001 2.43975 6.76269 3.66741 5.21505 5.21505C2.08944 8.34066 0.333496 12.5799 0.333496 17.0002C0.333496 24.3668 5.11683 30.6168 11.7335 32.8335C12.5668 32.9668 12.8335 32.4502 12.8335 32.0002V29.1835C8.21683 30.1835 7.2335 26.9502 7.2335 26.9502C6.46683 25.0168 5.3835 24.5002 5.3835 24.5002C3.86683 23.4668 5.50016 23.5002 5.50016 23.5002C7.16683 23.6168 8.05016 25.2168 8.05016 25.2168C9.50016 27.7502 11.9502 27.0002 12.9002 26.6002C13.0502 25.5168 13.4835 24.7835 13.9502 24.3668C10.2502 23.9502 6.36683 22.5168 6.36683 16.1668C6.36683 14.3168 7.00016 12.8335 8.0835 11.6502C7.91683 11.2335 7.3335 9.50016 8.25016 7.25016C8.25016 7.25016 9.65016 6.80016 12.8335 8.95016C14.1502 8.5835 15.5835 8.40016 17.0002 8.40016C18.4168 8.40016 19.8502 8.5835 21.1668 8.95016C24.3502 6.80016 25.7502 7.25016 25.7502 7.25016C26.6668 9.50016 26.0835 11.2335 25.9168 11.6502C27.0002 12.8335 27.6335 14.3168 27.6335 16.1668C27.6335 22.5335 23.7335 23.9335 20.0168 24.3502C20.6168 24.8668 21.1668 25.8835 21.1668 27.4335V32.0002C21.1668 32.4502 21.4335 32.9835 22.2835 32.8335C28.9002 30.6002 33.6668 24.3668 33.6668 17.0002C33.6668 14.8115 33.2357 12.6442 32.3982 10.6221C31.5606 8.60001 30.3329 6.76269 28.7853 5.21505C27.2376 3.66741 25.4003 2.43975 23.3782 1.60217C21.3561 0.764592 19.1889 0.333496 17.0002 0.333496Z" fill="white"/>
</svg>
