<?xml version="1.0" standalone="no"?>
<!DOCTYPE svg PUBLIC "-//W3C//DTD SVG 20010904//EN"
 "http://www.w3.org/TR/2001/REC-SVG-20010904/DTD/svg10.dtd">
<svg version="1.0" xmlns="http://www.w3.org/2000/svg"
 width="512.000000pt" height="512.000000pt" viewBox="0 0 512.000000 512.000000"
 preserveAspectRatio="xMidYMid meet">
<metadata>
Created by potrace 1.16, written by Peter Selinger 2001-2019
</metadata>
<g transform="translate(0.000000,512.000000) scale(0.100000,-0.100000)"
fill="#FFF" stroke="none">
<path d="M640 2560 l0 -1920 1920 0 1920 0 0 1920 0 1920 -1920 0 -1920 0 0
-1920z m3102 154 c29 -9 76 -28 103 -41 53 -27 168 -138 198 -191 17 -31 17
-31 -5 -43 -13 -7 -74 -45 -135 -85 l-113 -73 -15 28 c-22 43 -90 97 -140 111
-123 34 -235 -20 -251 -122 -17 -101 29 -163 168 -228 286 -133 346 -164 410
-211 77 -57 136 -128 169 -204 31 -70 39 -247 14 -330 -34 -119 -93 -198 -199
-267 -263 -171 -726 -110 -923 120 -47 55 -93 121 -93 132 0 7 251 158 271
163 3 1 25 -22 48 -51 49 -61 112 -109 179 -135 61 -24 192 -25 260 -3 127 42
169 191 80 283 -42 43 -89 70 -213 123 -146 62 -252 117 -321 166 -237 168
-271 528 -70 730 68 67 191 129 286 143 83 12 223 5 292 -15z m-1022 -666 c0
-725 -2 -742 -58 -855 -55 -108 -151 -186 -277 -226 -57 -18 -93 -22 -195 -21
-109 0 -135 4 -203 27 -96 33 -167 78 -228 143 -43 46 -106 141 -98 148 21 16
271 166 278 166 4 0 13 -11 19 -25 18 -39 94 -117 129 -131 18 -8 61 -14 95
-14 76 0 132 28 162 80 21 34 21 50 24 703 l3 667 174 0 175 0 0 -662z"/>
</g>
</svg>
