<?xml version="1.0" standalone="no"?>
<!DOCTYPE svg PUBLIC "-//W3C//DTD SVG 20010904//EN"
 "http://www.w3.org/TR/2001/REC-SVG-20010904/DTD/svg10.dtd">
<svg version="1.0" xmlns="http://www.w3.org/2000/svg"
 width="800.000000pt" height="800.000000pt" viewBox="0 0 800.000000 800.000000"
 preserveAspectRatio="xMidYMid meet">
<metadata>
Created by potrace 1.16, written by Peter Selinger 2001-2019
</metadata>
<g transform="translate(0.000000,800.000000) scale(0.100000,-0.100000)"
fill="#FFF" stroke="none">
<path d="M930 6490 c-47 -27 -91 -48 -98 -45 -7 3 -11 1 -7 -4 7 -13 -102 -74
-116 -65 -8 4 -9 3 -5 -4 4 -7 -3 -17 -18 -24 l-26 -11 0 -1337 0 -1337 26
-11 c15 -7 22 -17 18 -24 -4 -7 -3 -8 4 -4 15 9 72 -21 72 -38 0 -7 10 -12 23
-12 13 1 21 -4 19 -12 -1 -8 2 -11 8 -7 14 9 102 -43 95 -55 -3 -6 1 -7 9 -4
8 3 26 -2 40 -11 19 -13 29 -14 46 -5 11 6 25 8 30 5 6 -4 9 -2 8 4 -5 17 75
62 84 48 5 -8 8 -5 8 7 0 12 5 16 15 12 8 -3 14 -2 14 2 -3 19 2 25 11 12 8
-13 10 -13 10 1 0 19 26 33 42 22 6 -3 8 -1 4 5 -4 6 14 22 44 39 l50 28 0
958 0 958 62 -35 c34 -19 66 -43 69 -53 4 -10 8 -12 8 -5 1 10 6 10 21 2 11
-6 17 -16 14 -22 -4 -7 -3 -8 4 -4 13 8 75 -21 68 -32 -3 -4 4 -8 14 -9 26 -2
111 -53 105 -63 -3 -4 3 -7 13 -6 9 0 16 -4 15 -10 -1 -6 8 -10 20 -10 13 1
21 -4 19 -12 -1 -8 2 -11 8 -7 15 9 192 -94 184 -107 -4 -7 -2 -8 4 -4 16 10
92 -34 93 -53 0 -11 2 -12 6 -4 7 18 43 -3 44 -25 0 -10 3 -12 6 -5 3 10 10
10 24 2 11 -5 16 -15 13 -21 -4 -7 -3 -8 4 -4 16 10 74 -22 66 -36 -4 -7 -3
-8 5 -4 14 9 104 -42 96 -54 -3 -6 0 -7 8 -4 19 7 89 -35 80 -49 -3 -6 -1 -7
5 -3 17 10 142 -62 143 -82 0 -11 3 -12 6 -5 3 10 10 10 24 2 11 -5 16 -15 13
-21 -4 -7 -3 -8 4 -4 15 9 67 -18 85 -45 9 -13 16 -16 19 -8 3 9 8 8 18 -2 8
-8 28 -20 43 -27 17 -7 25 -17 21 -24 -4 -7 -3 -8 4 -4 15 9 74 -22 67 -34 -4
-6 3 -10 15 -10 25 0 112 -49 106 -59 -3 -4 4 -7 14 -7 10 0 16 4 14 8 -3 4 4
12 15 17 14 8 21 8 24 -2 3 -7 6 -5 6 5 1 22 37 43 44 25 4 -8 6 -7 6 4 1 19
77 63 93 53 7 -4 8 -3 4 4 -3 6 2 16 13 21 14 8 21 8 24 -2 3 -7 6 -6 6 5 1
20 126 92 143 82 7 -4 8 -3 4 4 -8 14 50 46 66 36 6 -4 8 -3 4 4 -8 14 100 76
115 66 8 -4 9 -3 5 4 -8 14 50 46 66 36 7 -4 8 -3 4 4 -3 6 2 16 13 21 14 8
21 8 24 -2 3 -7 6 -6 6 5 1 20 126 92 143 82 7 -4 8 -3 4 4 -3 6 2 16 13 21
14 8 21 8 24 -2 3 -7 6 -6 6 5 1 19 126 92 141 83 6 -4 10 -3 9 2 -3 20 2 27
11 13 8 -13 10 -13 10 1 0 19 26 33 42 22 7 -3 8 -1 4 5 -3 6 2 16 13 21 26
14 34 14 25 -1 -4 -7 -3 -8 5 -4 6 4 9 11 6 16 -3 5 3 14 14 19 14 8 21 8 24
-2 3 -7 6 -4 6 7 1 12 6 16 17 12 8 -3 12 -2 9 4 -8 12 52 43 67 34 7 -4 8 -3
4 4 -3 6 2 16 13 21 14 8 21 8 24 -2 3 -7 6 -6 6 5 1 20 126 92 143 82 7 -4 8
-3 4 4 -8 13 50 46 65 37 5 -4 8 -2 7 4 -2 6 21 25 50 42 l52 31 0 -776 0
-775 -77 -46 c-43 -24 -84 -43 -91 -40 -7 3 -10 1 -7 -5 8 -12 -52 -43 -67
-34 -6 4 -8 3 -4 -4 8 -13 -169 -116 -184 -107 -6 4 -9 1 -8 -7 2 -8 -6 -13
-19 -12 -12 0 -21 -4 -20 -10 1 -6 -6 -10 -15 -10 -10 1 -16 -2 -13 -6 8 -12
-173 -113 -186 -104 -8 4 -9 3 -5 -4 8 -14 -50 -46 -66 -36 -6 4 -8 3 -4 -4 8
-14 -170 -116 -185 -106 -8 4 -9 3 -5 -4 8 -14 -50 -46 -66 -36 -7 4 -8 3 -4
-4 8 -13 -50 -46 -65 -37 -5 4 -8 1 -7 -5 3 -10 -22 -26 -145 -95 -15 -9 -33
-13 -39 -9 -7 4 -8 3 -4 -4 8 -14 -50 -46 -66 -36 -6 4 -8 3 -4 -4 8 -14 -170
-116 -185 -106 -8 4 -9 3 -5 -4 8 -14 -50 -46 -66 -36 -6 4 -8 3 -4 -4 8 -14
-100 -76 -115 -66 -8 4 -9 3 -5 -4 8 -14 -50 -46 -66 -36 -7 4 -8 3 -4 -4 8
-14 -50 -46 -66 -36 -6 4 -8 3 -4 -4 4 -6 -20 -25 -59 -47 l-65 -37 0 -209 0
-209 40 -20 c22 -11 40 -26 40 -33 0 -8 10 -13 23 -13 13 1 21 -4 19 -12 -1
-8 2 -11 7 -7 15 9 73 -24 65 -37 -4 -7 -3 -8 4 -4 17 10 72 -22 73 -42 0 -10
3 -12 6 -5 3 10 10 10 24 2 11 -5 16 -15 13 -21 -4 -7 -3 -8 4 -4 16 10 74
-22 66 -36 -4 -6 -3 -8 4 -4 6 3 15 -2 21 -11 6 -11 11 -13 11 -5 0 9 14 5 43
-13 23 -14 41 -29 40 -34 -1 -5 5 -8 15 -7 9 0 16 -4 15 -10 -1 -6 8 -10 20
-10 13 1 21 -4 19 -12 -1 -8 2 -11 8 -7 15 9 122 -54 114 -67 -4 -7 -2 -8 4
-4 16 10 74 -22 66 -36 -4 -7 -3 -8 4 -4 17 10 142 -62 143 -82 0 -11 3 -12 6
-5 3 10 10 10 24 2 11 -5 16 -15 13 -21 -4 -7 -3 -8 4 -4 15 9 75 -22 67 -34
-3 -6 1 -7 9 -4 11 4 16 0 16 -12 0 -13 3 -15 8 -7 5 9 16 7 40 -9 17 -11 29
-24 26 -29 -3 -5 3 -6 12 -2 13 5 15 3 9 -7 -5 -9 -4 -11 3 -6 16 10 74 -22
66 -36 -4 -7 -3 -8 5 -4 13 9 124 -52 116 -64 -3 -4 3 -7 13 -6 9 0 16 -4 15
-10 -1 -6 8 -10 20 -10 13 1 21 -4 19 -12 -1 -8 2 -11 8 -7 15 9 140 -64 141
-83 0 -11 3 -12 6 -5 3 10 10 10 24 2 11 -5 16 -15 13 -21 -4 -7 -3 -8 4 -4
14 9 144 -62 137 -74 -3 -5 0 -12 6 -16 8 -4 9 -3 5 4 -9 15 -1 15 25 1 11 -5
17 -14 14 -18 -2 -5 3 -8 13 -7 9 0 16 -5 14 -12 -1 -8 2 -11 8 -7 5 3 10 0
10 -7 0 -9 3 -9 10 2 9 14 14 7 11 -13 -1 -5 3 -6 9 -2 14 9 102 -43 95 -55
-4 -6 1 -7 11 -3 13 5 15 3 9 -7 -5 -9 -4 -11 3 -6 16 10 74 -22 66 -36 -4 -7
-3 -8 4 -4 14 9 144 -62 137 -74 -3 -5 -1 -11 5 -15 5 -3 10 -1 10 5 0 8 6 8
20 0 11 -6 17 -16 14 -22 -4 -7 -3 -8 4 -4 7 4 30 -3 52 -15 l40 -23 38 21
c20 11 43 18 50 16 7 -3 12 -1 11 4 -3 20 2 27 11 13 8 -13 10 -13 10 1 0 19
26 33 42 22 7 -3 8 -1 4 5 -3 6 2 16 13 21 14 8 21 8 24 -2 3 -7 6 -6 6 5 1
20 126 92 143 82 7 -4 8 -3 4 4 -8 14 50 46 66 36 6 -4 8 -3 4 4 -8 14 170
116 185 106 8 -4 9 -3 5 4 -3 6 2 16 13 21 14 8 21 8 24 -2 3 -7 6 -6 6 5 1
19 126 92 141 83 6 -4 10 -3 9 2 -3 20 2 27 11 13 8 -13 10 -13 10 1 0 19 26
33 42 22 6 -3 8 -1 4 5 -8 14 100 76 115 66 8 -4 9 -3 5 4 -8 14 50 46 66 36
7 -4 8 -3 4 4 -8 14 50 46 66 36 6 -4 8 -3 4 4 -8 14 100 76 115 66 8 -4 9 -3
5 4 -8 14 50 46 66 36 7 -4 8 -3 4 4 -3 6 2 16 13 21 14 8 21 8 24 -2 3 -7 6
-6 6 5 1 20 126 92 143 82 7 -4 8 -3 4 4 -8 14 50 46 66 36 6 -4 8 -3 4 4 -8
14 170 116 185 106 8 -4 9 -3 5 4 -3 6 3 16 14 22 14 8 20 8 20 0 0 -6 5 -8
10 -5 6 4 8 10 5 15 -7 11 122 83 135 75 6 -4 10 -3 9 2 -3 20 2 27 11 13 8
-13 10 -13 10 1 0 19 26 33 42 22 7 -3 8 -1 4 5 -3 6 2 16 13 21 14 8 21 8 24
-2 3 -7 6 -6 6 5 1 20 126 92 143 82 7 -4 8 -3 4 4 -8 14 50 46 66 36 7 -4 8
-3 4 4 -4 6 6 18 24 27 l30 16 0 932 0 932 -50 28 c-30 17 -48 33 -44 39 4 7
2 8 -5 4 -15 -10 -193 92 -185 106 4 7 2 8 -4 4 -6 -4 -21 -2 -32 4 -16 9 -34
3 -100 -35 -44 -26 -85 -43 -91 -39 -7 4 -9 3 -5 -4 4 -6 -28 -30 -79 -59
l-85 -48 0 -741 0 -741 -26 -12 c-14 -6 -30 -8 -36 -5 -7 4 -8 2 -4 -4 8 -14
-50 -46 -66 -36 -6 4 -8 3 -4 -4 8 -14 -170 -116 -185 -106 -8 4 -9 3 -5 -4 8
-14 -50 -46 -66 -36 -7 4 -8 3 -4 -4 8 -14 -50 -46 -66 -36 -6 4 -8 3 -4 -4 8
-13 -169 -116 -184 -107 -6 4 -9 1 -8 -7 2 -8 -6 -13 -19 -12 -12 0 -21 -4
-20 -10 1 -6 -6 -10 -15 -10 -10 1 -16 -2 -13 -6 8 -12 -173 -113 -186 -104
-8 4 -9 3 -5 -4 8 -14 -50 -46 -66 -36 -6 4 -8 3 -4 -4 8 -14 -170 -116 -185
-106 -8 4 -9 3 -5 -4 8 -14 -50 -46 -66 -36 -7 4 -8 3 -4 -4 8 -14 -50 -46
-66 -36 -6 4 -8 3 -4 -4 8 -14 -100 -76 -115 -66 -8 4 -9 3 -5 -4 8 -14 -50
-46 -66 -36 -7 4 -8 3 -4 -4 8 -13 -50 -46 -65 -37 -5 4 -8 2 -7 -5 2 -6 -18
-23 -44 -38 l-48 -27 -47 27 c-27 15 -47 32 -45 38 1 7 -2 9 -7 5 -15 -9 -73
24 -65 37 4 7 3 8 -4 4 -16 -10 -74 22 -66 36 4 7 3 8 -5 4 -15 -10 -193 92
-185 106 4 7 2 8 -4 4 -16 -10 -74 22 -66 36 4 7 3 8 -4 4 -16 -10 -74 22 -66
36 4 7 3 8 -4 4 -16 -10 -74 22 -66 36 4 7 3 8 -5 4 -15 -10 -193 92 -185 106
4 7 2 8 -4 4 -16 -10 -74 22 -66 36 4 7 3 8 -4 4 -16 -10 -74 22 -66 36 4 7 3
8 -5 4 -14 -9 -263 132 -256 145 4 5 0 7 -7 4 -7 -3 -35 8 -61 24 l-48 28 43
26 c30 18 45 22 50 14 5 -8 8 -5 8 7 0 12 5 16 16 12 8 -3 12 -2 9 4 -8 12 52
43 67 34 7 -4 8 -3 4 4 -3 6 2 16 13 21 26 14 34 14 25 -1 -4 -7 -3 -8 5 -4 6
4 9 11 6 16 -3 5 3 14 14 19 14 8 21 8 24 -2 4 -8 6 -7 6 3 1 21 38 44 44 27
3 -7 6 -5 6 4 1 19 27 32 43 22 7 -3 8 -1 4 5 -3 6 2 16 13 21 14 8 21 8 24
-2 3 -7 6 -5 6 5 1 22 37 43 44 25 4 -8 6 -7 6 4 1 19 77 63 93 53 7 -4 8 -3
4 4 -3 6 2 16 13 21 14 8 21 8 24 -2 3 -7 6 -5 6 5 1 20 56 52 73 42 7 -4 8
-3 4 4 -8 14 50 46 66 36 7 -4 8 -3 4 4 -3 6 2 16 13 21 14 8 21 8 24 -2 3 -7
6 -5 6 5 1 22 37 43 44 25 4 -8 6 -7 6 4 1 19 77 63 93 53 7 -4 8 -3 4 4 -3 6
2 16 13 21 14 8 21 8 24 -2 3 -7 6 -6 6 5 1 20 126 92 143 82 7 -4 8 -3 4 4
-3 6 2 16 13 21 14 8 21 8 24 -2 3 -7 6 -6 6 5 1 20 126 92 143 82 7 -4 8 -3
4 4 -3 6 3 16 14 22 14 8 20 8 20 0 0 -6 5 -8 10 -5 6 4 8 10 5 15 -7 12 123
83 137 74 7 -4 8 -3 4 4 -8 14 50 46 66 36 6 -4 8 -3 4 4 -4 6 14 22 44 39
l50 28 0 1345 0 1345 -85 48 c-51 29 -83 53 -79 59 4 7 2 8 -5 4 -15 -10 -123
52 -115 66 4 6 2 8 -4 4 -6 -3 -26 1 -45 10 -33 16 -36 16 -80 -11 -26 -14
-52 -23 -58 -19 -8 4 -9 3 -5 -4 8 -14 -50 -46 -66 -36 -6 4 -8 3 -4 -4 8 -14
-100 -76 -115 -66 -7 4 -9 3 -5 -4 8 -14 -170 -116 -185 -106 -7 4 -9 3 -5 -4
8 -14 -100 -76 -115 -66 -8 4 -9 3 -5 -4 8 -14 -50 -46 -66 -36 -6 4 -8 3 -4
-4 8 -13 -99 -76 -114 -67 -6 4 -9 1 -8 -7 2 -8 -6 -13 -19 -12 -12 0 -21 -4
-20 -10 1 -6 -6 -10 -15 -10 -10 1 -16 -2 -13 -6 8 -12 -173 -113 -186 -104
-8 4 -9 3 -5 -4 8 -14 -50 -46 -66 -36 -6 4 -8 3 -4 -4 8 -14 -100 -76 -115
-66 -8 4 -9 3 -5 -4 8 -14 -50 -46 -66 -36 -6 4 -8 3 -4 -4 8 -14 -240 -156
-255 -146 -7 4 -9 3 -5 -4 8 -14 -100 -76 -115 -66 -8 4 -9 3 -5 -4 8 -14 -50
-46 -66 -36 -6 4 -8 3 -4 -4 8 -13 -169 -116 -184 -107 -6 4 -9 1 -8 -7 2 -7
-4 -13 -12 -13 -8 0 -14 6 -12 13 1 8 -2 11 -8 7 -15 -9 -122 54 -114 67 4 7
2 8 -4 4 -16 -10 -74 22 -66 36 4 7 3 8 -5 4 -15 -10 -123 52 -115 66 4 7 2 8
-4 4 -16 -10 -74 22 -66 36 4 7 3 8 -5 4 -15 -10 -193 92 -185 106 4 7 2 8 -5
4 -15 -10 -123 52 -115 66 4 7 2 8 -4 4 -16 -10 -74 22 -66 36 4 7 3 8 -5 4
-15 -10 -193 92 -185 106 4 7 2 8 -5 4 -15 -10 -193 92 -185 106 4 7 2 8 -4 4
-16 -10 -74 22 -66 36 4 7 3 8 -5 4 -15 -10 -123 52 -115 66 4 7 2 8 -4 4 -16
-10 -74 22 -66 36 4 7 3 8 -5 4 -15 -10 -123 52 -115 66 4 7 2 8 -4 4 -16 -10
-74 22 -66 36 4 7 3 8 -5 4 -15 -10 -123 52 -115 66 4 7 2 8 -4 4 -16 -10 -74
22 -66 36 4 7 3 8 -4 4 -16 -10 -74 22 -66 36 4 7 3 8 -5 4 -6 -4 -31 4 -56
18 -24 14 -47 26 -52 26 -4 0 -46 -23 -93 -50z"/>
<path d="M645 5000 c0 -734 1 -1035 2 -668 2 368 2 968 0 1336 -1 367 -2 66
-2 -668z"/>
<path d="M5355 4990 c0 -740 1 -1042 2 -672 2 369 2 975 0 1345 -1 369 -2 67
-2 -673z"/>
<path d="M1355 4615 c0 -522 1 -738 2 -478 2 259 2 687 0 950 -1 263 -2 51 -2
-472z"/>
<path d="M4645 4800 c0 -421 1 -593 2 -383 2 211 2 555 0 766 -1 210 -2 38 -2
-383z"/>
<path d="M6986 5339 c6 -11 -104 -71 -116 -64 -6 4 -9 1 -8 -5 3 -10 -22 -26
-145 -95 -15 -9 -33 -13 -39 -9 -6 4 -8 3 -4 -4 3 -6 2 -13 -4 -17 -6 -4 -10
-79 -10 -200 0 -121 4 -196 10 -200 6 -4 7 -11 4 -17 -4 -7 -2 -8 4 -4 16 10
74 -22 66 -36 -4 -6 -3 -8 4 -4 6 3 15 -2 21 -11 6 -11 11 -13 11 -5 0 20 40
-5 41 -26 0 -10 3 -12 6 -5 3 10 10 10 24 2 11 -5 16 -15 13 -21 -4 -7 -3 -8
5 -4 6 4 36 -7 67 -24 48 -28 53 -34 42 -48 -12 -15 -11 -16 5 -3 14 11 20 11
35 0 15 -13 16 -12 4 2 -11 15 -6 20 35 45 26 15 56 27 66 27 9 -1 15 2 12 7
-7 12 172 113 186 104 7 -4 9 -3 5 4 -3 6 -2 13 4 17 6 4 10 79 10 200 0 121
-4 196 -10 200 -6 4 -7 11 -4 17 4 7 2 8 -5 4 -15 -10 -123 52 -115 66 4 7 2
8 -4 4 -16 -10 -74 22 -66 36 4 7 3 8 -5 4 -13 -8 -124 51 -117 63 3 4 -4 7
-14 7 -10 0 -17 -3 -14 -7z"/>
<path d="M7355 3400 c0 -514 1 -725 2 -467 2 257 2 677 0 935 -1 257 -2 46 -2
-468z"/>
</g>
</svg>
