<?xml version="1.0" standalone="no"?>
<!DOCTYPE svg PUBLIC "-//W3C//DTD SVG 20010904//EN"
 "http://www.w3.org/TR/2001/REC-SVG-20010904/DTD/svg10.dtd">
<svg version="1.0" xmlns="http://www.w3.org/2000/svg"
 width="256.000000pt" height="256.000000pt" viewBox="0 0 256.000000 256.000000"
 preserveAspectRatio="xMidYMid meet">
<metadata>
Created by potrace 1.16, written by Peter Selinger 2001-2019
</metadata>
<g transform="translate(0.000000,256.000000) scale(0.100000,-0.100000)"
fill="#FFF" stroke="none">
<path d="M1147 2535 c-56 -33 -59 -42 -4 -11 27 15 50 26 52 24 2 -2 -213
-129 -478 -283 -264 -154 -492 -288 -506 -298 -14 -10 -10 -4 9 13 19 18 26
28 15 22 -11 -6 -31 -23 -45 -38 -14 -15 -19 -24 -11 -19 9 5 12 3 9 -6 -3 -8
-11 -14 -18 -14 -7 0 -15 -7 -17 -15 -4 -13 -3 -13 7 0 8 12 9 8 3 -15 -10
-39 -10 -1191 0 -1230 6 -23 5 -27 -3 -15 -10 13 -11 13 -7 0 2 -8 10 -15 17
-15 7 0 15 -6 18 -14 3 -9 0 -11 -9 -6 -8 5 -3 -4 11 -19 14 -15 34 -32 45
-38 11 -6 4 4 -15 21 l-35 31 45 -28 c25 -16 126 -76 225 -133 170 -98 183
-104 245 -107 45 -3 78 1 104 12 21 9 42 14 46 11 5 -3 12 0 16 6 5 8 3 9 -7
4 -12 -8 -12 -6 0 8 16 20 36 23 25 5 -5 -8 0 -7 11 2 22 17 75 99 75 114 0 6
-14 -13 -31 -42 -17 -30 -33 -51 -36 -48 -4 3 1 14 9 23 9 10 24 34 34 53 18
33 19 72 22 654 3 576 2 620 -15 645 -10 14 -18 31 -18 36 0 6 -11 11 -25 12
l-25 2 25 -9 c23 -9 23 -9 -7 -7 -23 3 -39 -3 -53 -18 -20 -21 -20 -32 -17
-626 l2 -604 3 606 2 606 23 19 c22 19 22 19 5 -2 -17 -19 -18 -64 -19 -625 0
-441 -3 -613 -12 -639 -24 -69 -117 -101 -190 -64 -103 53 -359 209 -367 224
-6 12 -10 233 -10 583 0 523 1 566 18 585 27 32 963 574 992 575 28 0 965
-542 993 -575 16 -19 17 -62 17 -588 0 -526 -1 -569 -17 -588 -29 -33 -965
-575 -993 -575 -26 0 -286 148 -283 162 3 11 -59 1 -77 -13 -13 -9 -13 -9 -2
6 8 9 26 19 40 21 l27 4 -26 2 c-16 0 -34 -9 -50 -26 -13 -14 -18 -23 -11 -19
10 6 11 1 7 -17 -4 -14 -1 -35 5 -47 8 -15 8 -20 1 -16 -6 4 -15 21 -20 39 -6
21 -10 25 -10 12 -1 -27 26 -65 42 -60 6 3 73 -31 147 -75 74 -44 131 -80 127
-80 -5 0 -28 12 -53 26 -24 14 -44 24 -44 21 0 -3 19 -16 43 -30 37 -21 54
-25 137 -25 83 0 100 4 138 25 23 14 42 27 42 30 0 3 -21 -7 -46 -22 -25 -15
-47 -25 -49 -23 -1 1 209 127 468 278 259 151 487 285 506 297 l36 23 -35 -31
c-19 -17 -26 -27 -15 -21 11 6 31 23 45 38 14 15 19 24 11 19 -9 -5 -12 -3 -9
6 3 8 11 14 18 14 7 0 15 7 17 15 4 13 3 13 -7 0 -10 -13 -11 -12 -6 3 3 10 6
26 7 35 0 15 1 15 7 0 7 -16 6 83 -1 895 -1 166 -6 311 -11 322 -6 16 -6 17 4
5 10 -13 11 -13 7 0 -2 8 -10 15 -17 15 -7 0 -15 6 -18 14 -3 9 0 11 9 6 8 -5
3 4 -11 19 -14 15 -34 32 -45 38 -11 6 -4 -4 15 -22 19 -17 23 -23 9 -13 -14
10 -242 144 -506 298 -265 154 -480 281 -478 283 2 2 14 -1 27 -8 21 -10 21
-10 5 3 -13 11 -45 15 -116 15 -83 0 -103 -4 -134 -23z"/>
<path d="M1410 1820 c28 -6 30 -8 10 -9 -58 -3 -144 -31 -244 -79 -5 -3 -5 1
-1 9 12 18 -48 -26 -66 -48 -10 -13 -7 -12 11 3 50 42 54 36 8 -13 -69 -75
-88 -170 -48 -248 23 -46 24 -48 8 -39 -7 4 3 -9 21 -29 35 -37 48 -47 35 -26
-4 7 -3 10 2 7 5 -2 38 -18 74 -35 42 -21 153 -53 312 -92 348 -85 378 -100
378 -192 0 -52 -35 -115 -63 -113 -9 1 -15 -3 -14 -9 1 -6 -18 -17 -43 -25
-61 -20 -343 -22 -420 -3 -120 30 -190 87 -190 154 0 32 -31 67 -60 67 -29 0
-60 -35 -60 -68 0 -15 5 -43 11 -62 6 -19 12 -44 14 -55 1 -11 7 -19 12 -18 6
1 25 -14 44 -34 35 -37 23 -36 -21 1 -18 15 -21 16 -11 3 18 -22 78 -66 66
-48 -4 8 -4 12 1 9 153 -74 196 -83 399 -83 179 0 247 12 323 56 39 22 46 24
36 7 -4 -7 10 3 30 22 37 35 76 97 76 122 0 7 -11 -9 -24 -37 -13 -27 -36 -61
-52 -75 l-29 -25 27 30 c44 49 68 113 68 183 0 81 -16 118 -76 172 -50 44 -44
46 14 3 17 -13 32 -22 32 -19 0 15 -83 64 -97 59 -12 -5 -14 -3 -8 7 5 8 4 11
-3 6 -6 -3 -39 3 -74 15 -35 11 -155 43 -268 69 -113 27 -231 58 -262 70 -99
37 -133 104 -88 177 64 105 372 146 583 77 65 -21 127 -81 127 -121 0 -17 9
-42 20 -56 12 -15 20 -30 18 -34 -2 -4 8 -9 22 -10 l25 -2 -25 9 c-23 9 -23 9
7 7 49 -5 75 28 70 84 l-4 44 -1 -46 c-2 -34 -8 -51 -24 -65 -23 -19 -23 -19
-5 2 38 46 4 171 -63 227 -74 63 -191 103 -322 112 -160 10 -252 12 -218 5z"/>
</g>
</svg>
