<?xml version="1.0" standalone="no"?>
<!DOCTYPE svg PUBLIC "-//W3C//DTD SVG 20010904//EN"
 "http://www.w3.org/TR/2001/REC-SVG-20010904/DTD/svg10.dtd">
<svg version="1.0" xmlns="http://www.w3.org/2000/svg"
 width="3840.000000pt" height="2400.000000pt" viewBox="0 0 3840.000000 2400.000000"
 preserveAspectRatio="xMidYMid meet">
<metadata>
Created by potrace 1.16, written by Peter Selinger 2001-2019
</metadata>
<g transform="translate(0.000000,2400.000000) scale(0.100000,-0.100000)"
fill="#FFF" stroke="none">
<path d="M4640 14790 c-19 -5 -82 -16 -140 -25 -58 -9 -129 -23 -159 -30 -46
-12 -72 -12 -180 1 -177 22 -553 21 -691 0 -140 -22 -285 -61 -397 -106 l-92
-38 -73 20 c-290 78 -662 128 -955 128 -610 0 -1032 -180 -1281 -547 -104
-154 -150 -285 -202 -577 -15 -89 -12 -342 5 -448 95 -567 308 -1248 536
-1714 211 -432 421 -663 688 -762 49 -18 94 -26 176 -29 134 -7 201 8 329 71
l89 43 51 -38 c123 -93 378 -157 626 -157 126 0 211 11 333 43 51 13 94 22 96
19 2 -2 6 -57 8 -121 6 -189 32 -461 52 -559 24 -115 108 -330 163 -414 152
-233 413 -342 741 -309 773 76 1087 438 1147 1324 6 88 13 178 16 201 l5 41
97 -3 c298 -6 605 57 832 172 195 98 316 198 368 303 68 140 7 283 -153 358
-55 25 -70 28 -175 27 -63 0 -158 -7 -210 -16 -114 -20 -250 -33 -250 -24 0 4
31 53 68 109 462 690 767 1574 713 2068 -14 135 -49 247 -99 325 -54 82 -234
251 -356 332 -244 164 -506 260 -902 331 -70 13 -769 13 -824 1z m627 -130
c500 -41 893 -204 1184 -490 154 -152 186 -249 176 -540 -14 -374 -151 -821
-407 -1325 -135 -265 -307 -544 -449 -725 -50 -64 -50 -65 -28 -76 79 -42 371
-43 612 -4 211 34 305 4 305 -100 0 -136 -311 -329 -630 -390 -207 -40 -480
-49 -602 -21 -21 5 -38 7 -38 5 0 -25 -88 -616 -115 -769 -61 -351 -100 -449
-230 -581 -66 -66 -97 -88 -175 -126 -137 -67 -288 -107 -475 -128 -216 -23
-408 25 -553 140 -94 74 -194 231 -226 357 -33 127 -61 502 -69 925 l-2 117
-55 -35 c-194 -124 -439 -169 -716 -129 -229 32 -384 120 -384 217 0 90 86
141 315 187 170 35 217 47 260 68 38 19 176 154 169 165 -3 4 -25 8 -49 8 -58
0 -167 23 -246 53 l-64 24 -95 -87 c-52 -48 -188 -178 -302 -288 -178 -172
-217 -205 -280 -236 -317 -155 -622 55 -907 624 -215 429 -436 1127 -527 1660
-19 112 -21 379 -5 485 46 283 126 452 295 620 82 81 122 112 211 162 376 210
957 228 1677 51 l168 -41 77 35 c209 95 428 138 698 138 121 0 353 -21 436
-39 25 -6 62 -1 129 15 275 68 635 97 917 74z"/>
<path d="M4825 14504 c-16 -2 -76 -9 -132 -15 l-103 -12 73 -31 c365 -159 668
-411 893 -741 70 -104 151 -264 177 -350 18 -64 9 -231 -24 -420 -27 -160 -28
-313 0 -505 27 -188 23 -406 -9 -505 -24 -76 -73 -180 -98 -207 -12 -15 -12
-20 -2 -33 11 -13 20 -7 63 52 295 401 568 958 693 1411 65 238 78 329 79 527
0 228 -11 268 -98 362 -140 149 -307 258 -545 352 -216 86 -366 111 -687 115
-137 2 -263 2 -280 0z"/>
<path d="M3717 14454 c-1 -1 -36 -4 -77 -5 -183 -6 -419 -83 -582 -191 -86
-56 -224 -196 -288 -292 -81 -121 -155 -289 -200 -451 -19 -70 -50 -239 -50
-272 l0 -32 53 23 c244 108 556 145 726 87 137 -47 238 -146 280 -273 43 -132
71 -307 78 -478 10 -282 -22 -422 -161 -696 -66 -132 -146 -314 -146 -334 0
-4 21 -7 48 -7 103 -2 190 -41 261 -118 85 -92 83 -78 85 -589 5 -768 36 -970
177 -1130 137 -156 361 -188 688 -100 247 67 372 185 430 409 30 112 132 747
158 975 2 25 9 72 14 105 5 33 9 90 9 127 0 149 94 276 227 310 l42 10 -75 84
c-65 74 -164 211 -164 229 0 3 -49 81 -108 173 -291 448 -401 713 -390 941 4
78 10 107 32 154 39 81 110 151 199 192 110 53 196 68 383 69 l162 1 -40 80
c-71 142 -252 383 -361 482 -118 107 -263 211 -392 282 -188 104 -478 196
-695 221 -81 9 -317 20 -323 14z"/>
<path d="M1802 14439 c-62 -4 -120 -10 -130 -14 -9 -4 -30 -9 -47 -12 -160
-24 -360 -107 -466 -194 -224 -183 -320 -427 -321 -813 0 -224 57 -509 193
-966 193 -648 416 -1110 643 -1334 78 -76 141 -109 221 -114 89 -5 134 24 322
208 87 85 211 204 276 264 64 60 117 112 117 115 -1 3 -21 22 -46 41 -55 42
-140 145 -182 220 -84 150 -106 299 -76 525 19 148 24 386 13 620 -11 218 21
442 96 670 79 244 190 429 350 587 46 46 64 69 54 72 -57 19 -333 77 -434 92
-27 3 -59 8 -70 11 -112 22 -340 32 -513 22z"/>
<path d="M5190 13199 c-202 -34 -281 -160 -236 -376 39 -184 159 -425 367
-740 37 -56 84 -132 105 -168 20 -37 40 -63 44 -58 14 15 49 130 60 194 15 96
13 156 -16 380 -30 232 -29 345 5 539 11 63 23 140 26 171 7 53 6 57 -17 62
-34 10 -274 6 -338 -4z m176 -74 c32 -20 30 -37 -6 -79 -61 -69 -149 -87 -227
-47 -67 34 -82 78 -37 108 64 41 219 52 270 18z"/>
<path d="M2970 13175 c-117 -18 -247 -58 -360 -111 l-95 -45 0 -282 c0 -196
-4 -309 -14 -372 -40 -251 3 -421 147 -576 30 -33 74 -73 98 -89 110 -76 262
-130 367 -130 l44 0 33 88 c18 48 70 161 115 252 130 260 164 381 163 585 0
165 -42 429 -83 530 -35 84 -109 137 -216 155 -76 12 -89 12 -199 -5z m281
-92 c22 -8 48 -27 59 -41 19 -24 20 -26 3 -55 -21 -36 -77 -67 -133 -74 -110
-15 -251 112 -185 167 39 32 180 34 256 3z"/>
<path d="M5555 11381 c-16 -4 -47 -16 -69 -26 -47 -22 -75 -78 -76 -147 l0
-46 52 -12 c28 -7 102 -13 162 -14 293 -3 519 48 709 159 42 25 77 47 77 49 0
2 -17 0 -37 -4 -125 -28 -398 -43 -518 -29 -76 9 -219 51 -239 70 -11 10 -18
10 -61 0z"/>
<path d="M3365 11359 c-11 -7 -72 -62 -135 -124 -153 -149 -182 -163 -443
-215 -185 -38 -195 -43 -131 -63 98 -31 172 -41 309 -41 113 0 155 4 218 22
119 34 208 83 292 164 68 64 75 74 75 110 0 21 -7 52 -15 68 -32 63 -124 105
-170 79z"/>
<path d="M28225 13753 c-643 -28 -1020 -150 -1226 -395 -107 -129 -161 -267
-179 -461 -24 -272 46 -509 197 -662 133 -135 288 -207 604 -283 240 -58 389
-86 959 -178 280 -45 578 -107 700 -146 218 -69 351 -199 395 -384 31 -130 11
-337 -45 -459 -78 -173 -247 -290 -506 -350 -183 -42 -245 -48 -574 -51 -282
-3 -342 0 -453 16 -292 45 -480 114 -644 236 -181 135 -278 328 -301 599 l-7
80 -227 3 -228 2 0 -52 c1 -49 10 -134 25 -233 10 -63 40 -165 69 -232 91
-217 238 -370 463 -485 188 -97 346 -145 650 -198 115 -20 417 -40 608 -40
253 0 623 33 724 64 9 3 33 8 53 11 57 9 243 72 326 110 152 70 253 146 355
264 65 76 114 165 150 275 27 83 30 106 34 266 6 203 -10 293 -71 420 -74 152
-172 246 -346 334 -235 118 -538 194 -1170 291 -14 2 -63 11 -110 19 -47 9
-123 23 -170 31 -243 44 -535 109 -630 141 -142 48 -267 140 -325 240 -37 63
-65 178 -65 266 0 279 143 477 410 568 291 99 831 121 1199 48 263 -51 468
-160 575 -306 73 -101 135 -287 136 -409 l0 -43 226 0 227 0 -6 113 c-7 139
-33 244 -92 362 -198 398 -685 600 -1467 608 -106 1 -215 1 -243 0z"/>
<path d="M32305 13753 c-307 -19 -516 -54 -748 -125 -624 -191 -1073 -637
-1212 -1206 -43 -177 -55 -286 -55 -503 0 -269 25 -430 101 -646 74 -210 203
-411 376 -586 222 -225 465 -374 788 -482 59 -20 280 -72 355 -84 36 -6 76
-13 90 -15 96 -17 318 -30 500 -29 470 0 816 57 1091 178 l82 36 56 -39 c55
-38 120 -83 316 -217 55 -38 139 -97 188 -132 l87 -63 138 125 c75 69 137 129
137 134 0 5 -22 24 -50 43 -27 19 -142 97 -255 173 -175 118 -297 202 -308
210 -1 1 33 31 75 66 122 100 131 109 208 199 126 148 209 289 272 465 143
394 146 895 6 1305 -145 429 -507 803 -963 998 -289 123 -658 191 -1060 195
-96 1 -193 1 -215 0z m405 -298 c263 -24 457 -73 652 -163 83 -38 217 -121
282 -173 281 -227 428 -441 505 -732 45 -169 54 -246 55 -462 0 -213 -6 -274
-46 -443 -135 -577 -608 -974 -1288 -1082 -41 -6 -85 -13 -98 -15 -73 -12
-376 -15 -497 -6 -648 49 -1154 353 -1399 840 -197 391 -200 989 -6 1407 167
360 531 645 978 765 263 70 560 93 862 64z"/>
<path d="M35120 13670 l-195 -5 0 -1750 0 -1750 1504 -3 c1197 -2 1506 0 1513
10 4 7 8 77 8 156 l0 142 -1300 0 -1300 0 0 1599 c0 1514 -1 1599 -17 1602
-10 2 -106 2 -213 -1z"/>
<path d="M8352 13662 l-262 -2 2 -1748 3 -1747 210 0 210 0 3 742 2 742 888 3
c867 4 890 4 999 26 281 55 478 151 636 307 154 153 232 323 257 566 21 201
-14 420 -95 585 -130 266 -350 426 -700 507 -88 21 -112 21 -990 22 -495 0
-1018 -1 -1163 -3z m1850 -293 c356 -38 565 -193 645 -479 26 -94 26 -389 0
-475 -78 -253 -262 -398 -587 -461 -74 -14 -195 -17 -912 -21 l-828 -5 0 726
0 726 790 0 c499 0 827 -4 892 -11z"/>
<path d="M17500 12845 c0 -350 -1 -375 -17 -376 -10 -1 -112 -2 -228 -3 l-210
-1 -5 -118 c-3 -65 -3 -121 -1 -123 2 -2 107 -4 233 -4 l228 0 0 -828 c0 -552
4 -848 11 -888 25 -137 103 -240 224 -295 114 -51 246 -73 450 -72 113 1 202
6 240 14 l60 14 -1 118 c-1 65 -4 120 -6 123 -3 2 -34 -3 -69 -12 -50 -13 -91
-15 -189 -11 -195 9 -275 42 -320 132 l-25 50 -3 828 -2 827 310 0 311 0 -3
123 -3 122 -305 0 -305 0 -5 375 -5 375 -182 3 -183 2 0 -375z"/>
<path d="M12430 12534 c-428 -53 -704 -173 -921 -400 -197 -208 -285 -437
-296 -776 -8 -257 28 -435 129 -630 175 -336 497 -545 948 -615 163 -25 579
-25 735 1 290 47 472 113 660 240 185 124 344 347 405 566 72 263 65 600 -18
840 -54 155 -137 284 -263 406 -196 189 -428 294 -775 349 -96 16 -522 29
-604 19z m425 -259 c305 -24 571 -141 710 -311 138 -170 198 -370 197 -659 0
-317 -75 -521 -251 -687 -114 -108 -196 -157 -349 -208 -157 -52 -252 -64
-507 -64 -212 0 -238 2 -340 26 -430 101 -678 381 -727 818 -14 129 0 310 33
431 79 290 302 514 599 602 194 58 377 73 635 52z"/>
<path d="M15345 12529 c-283 -23 -566 -93 -683 -170 -66 -43 -141 -117 -184
-180 -85 -127 -109 -342 -56 -504 61 -186 220 -307 473 -361 136 -29 464 -80
705 -108 187 -22 530 -68 599 -81 156 -27 275 -105 328 -213 25 -50 28 -68 28
-152 0 -81 -4 -103 -25 -145 -96 -197 -360 -285 -855 -285 -281 0 -450 21
-610 77 -219 76 -335 211 -354 408 l-6 70 -194 3 c-107 1 -198 -1 -202 -5 -13
-13 27 -193 61 -279 94 -239 309 -391 645 -458 179 -35 354 -48 655 -47 239 0
323 4 440 20 322 44 535 129 674 267 105 103 166 255 166 410 0 331 -229 522
-728 609 -48 8 -172 24 -277 35 -690 74 -879 106 -1004 169 -76 39 -115 73
-149 130 -24 41 -27 56 -27 136 0 78 4 97 28 147 66 135 225 219 483 259 102
15 465 20 569 8 377 -44 575 -187 609 -439 l10 -80 188 0 188 0 0 51 c0 141
-66 302 -167 410 -144 152 -346 237 -673 284 -135 19 -493 27 -655 14z"/>
<path d="M19950 12533 c-449 -42 -697 -131 -921 -330 -198 -176 -301 -398
-329 -708 -39 -424 106 -801 390 -1020 176 -136 454 -231 754 -260 90 -9 403
-9 481 0 367 40 635 153 829 349 l68 69 -5 -274 c-4 -237 -7 -285 -26 -354
-86 -323 -321 -503 -726 -554 -279 -35 -634 -16 -855 46 -207 58 -341 190
-396 393 -10 36 -21 67 -25 70 -4 3 -88 5 -186 5 l-178 -1 3 -42 c3 -52 46
-190 79 -257 64 -126 181 -242 308 -305 136 -67 341 -121 520 -136 33 -3 83
-9 110 -14 83 -15 605 -6 725 13 227 34 368 76 517 150 261 132 413 331 476
627 19 92 20 130 21 1275 l1 1180 -182 3 -183 2 -1 -162 c-1 -90 -1 -175 -1
-191 1 -25 -9 -18 -116 82 -178 167 -227 200 -379 254 -170 61 -334 88 -568
91 -93 1 -186 1 -205 -1z m545 -283 c217 -45 379 -131 507 -269 140 -151 207
-327 213 -561 6 -205 -24 -351 -101 -501 -80 -155 -202 -267 -388 -355 -154
-73 -293 -103 -511 -109 -426 -12 -767 99 -946 307 -75 87 -142 225 -171 348
-27 123 -30 366 -5 479 83 371 369 614 792 671 50 6 97 13 105 15 8 2 103 2
210 0 148 -3 219 -9 295 -25z"/>
<path d="M23063 12529 c-182 -17 -332 -57 -433 -116 -97 -57 -202 -180 -260
-304 l-29 -64 -1 208 0 207 -185 0 -185 0 0 -1145 c0 -630 3 -1146 8 -1147 24
-5 342 -4 351 1 6 4 11 243 14 686 3 650 4 684 25 765 67 275 190 441 396 539
150 72 363 102 579 82 73 -7 140 -15 150 -17 16 -5 17 7 17 156 l0 161 -182
-2 c-101 -2 -220 -6 -265 -10z"/>
<path d="M24715 12529 c-422 -39 -733 -171 -956 -407 -188 -199 -276 -424
-286 -737 -13 -359 81 -637 288 -859 198 -212 471 -348 819 -408 106 -19 164
-22 375 -22 214 0 267 3 365 22 431 81 711 244 890 519 48 73 105 197 116 253
l7 30 -197 0 c-178 0 -197 -2 -202 -17 -17 -51 -67 -148 -102 -200 -166 -244
-455 -366 -867 -366 -249 1 -419 30 -585 102 -113 49 -186 98 -276 183 -155
147 -237 324 -251 540 l-6 88 1273 0 1272 0 -6 58 c-3 31 -8 93 -12 137 -24
312 -176 607 -411 795 -182 147 -393 230 -693 276 -121 18 -423 25 -555 13z
m417 -239 c338 -39 656 -249 797 -528 34 -67 71 -205 71 -264 l0 -38 -1075 0
c-1022 0 -1075 1 -1075 18 0 23 36 153 60 220 53 143 155 294 249 369 239 189
578 267 973 223z"/>
</g>
</svg>
