<?xml version="1.0" standalone="no"?>
<!DOCTYPE svg PUBLIC "-//W3C//DTD SVG 20010904//EN"
 "http://www.w3.org/TR/2001/REC-SVG-20010904/DTD/svg10.dtd">
<svg version="1.0" xmlns="http://www.w3.org/2000/svg"
 width="1200.000000pt" height="1238.000000pt" viewBox="0 0 1200.000000 1238.000000"
 preserveAspectRatio="xMidYMid meet">
<metadata>
Created by potrace 1.16, written by Peter Selinger 2001-2019
</metadata>
<g transform="translate(0.000000,1238.000000) scale(0.100000,-0.100000)"
fill="#FFF" stroke="none">
<path d="M8305 12373 c-296 -20 -734 -94 -1013 -172 l-103 -29 -121 19 c-275
42 -443 53 -793 54 -278 0 -364 -3 -470 -18 -364 -52 -654 -141 -942 -292
l-123 -64 -72 25 c-324 111 -864 234 -1218 278 -670 84 -1232 47 -1720 -114
-620 -204 -1080 -590 -1370 -1153 -176 -341 -278 -709 -330 -1192 -18 -164
-24 -632 -11 -805 49 -646 332 -1941 641 -2935 494 -1589 1032 -2480 1650
-2735 135 -56 213 -72 371 -77 156 -6 249 7 374 49 92 32 222 100 309 162 l78
57 67 -64 c232 -224 628 -355 1136 -374 290 -11 595 39 831 135 l52 21 6 -31
c3 -17 6 -78 6 -137 0 -260 35 -868 65 -1127 32 -275 66 -434 142 -669 93
-287 169 -458 272 -612 203 -304 491 -487 871 -554 111 -20 400 -17 535 5 876
143 1368 468 1681 1111 228 469 341 1053 389 2000 8 160 17 304 21 321 l6 31
151 -4 c379 -13 885 64 1203 182 122 46 320 144 445 221 361 223 576 448 660
691 28 83 28 325 -1 409 -56 163 -201 303 -375 362 -149 50 -304 52 -550 7
-284 -53 -585 -90 -585 -72 0 3 43 82 96 174 128 221 390 737 502 988 402 894
683 1786 812 2580 138 843 88 1470 -147 1867 -101 169 -425 516 -650 695 -220
175 -398 287 -658 414 -414 202 -834 316 -1339 364 -145 14 -622 19 -781 8z
m815 -347 c674 -79 1235 -303 1721 -687 117 -92 384 -355 476 -469 115 -143
172 -252 214 -410 202 -765 -83 -2214 -726 -3700 -232 -535 -558 -1150 -852
-1603 -34 -54 -63 -102 -63 -107 0 -17 115 -63 209 -83 80 -17 130 -21 301
-20 220 0 395 19 650 68 187 37 276 45 354 34 73 -10 150 -44 182 -81 51 -58
59 -80 59 -168 0 -76 -4 -93 -32 -150 -37 -75 -141 -192 -247 -279 -183 -150
-474 -310 -687 -379 -428 -139 -1008 -183 -1345 -102 -41 9 -74 14 -74 11 0
-3 -18 -159 -40 -346 -81 -685 -173 -1381 -226 -1700 -81 -495 -211 -793 -443
-1025 -198 -197 -465 -333 -831 -424 -202 -50 -304 -66 -461 -73 -445 -20
-811 151 -1053 491 -105 148 -220 391 -261 551 -81 318 -135 1142 -135 2069 0
308 -1 318 -18 305 -11 -8 -59 -44 -108 -81 -161 -122 -404 -231 -604 -272
-145 -29 -270 -39 -439 -33 -411 14 -736 116 -908 284 -141 137 -141 324 -1
447 97 85 228 135 513 196 292 63 453 122 537 198 40 36 258 300 258 313 0 3
-37 9 -83 12 -185 15 -378 67 -540 148 -33 16 -63 28 -67 27 -20 -8 -505 -548
-739 -823 -350 -411 -414 -473 -571 -554 -522 -270 -1036 92 -1510 1065 -422
866 -866 2368 -1095 3707 -72 425 -79 499 -79 867 0 351 11 496 55 743 80 446
241 825 476 1117 358 446 909 710 1608 770 608 51 1427 -71 2163 -324 l132
-46 93 56 c371 223 765 334 1252 351 267 9 614 -22 876 -78 57 -13 118 -23
134 -23 17 0 91 19 165 42 297 91 656 154 1065 186 117 9 617 -3 745 -18z"/>
<path d="M8325 11690 c-188 -16 -375 -42 -522 -71 l-52 -10 152 -78 c525 -267
976 -651 1347 -1146 301 -401 551 -883 650 -1251 18 -66 21 -105 21 -244 -2
-212 -12 -323 -63 -665 -42 -279 -42 -281 -42 -560 0 -260 3 -302 37 -590 21
-174 40 -387 44 -485 14 -391 -49 -704 -202 -1014 -67 -134 -68 -142 -28 -178
17 -16 24 -7 145 195 679 1133 1181 2439 1367 3562 109 651 82 1191 -70 1411
-92 134 -314 363 -484 500 -129 103 -339 235 -500 314 -311 153 -620 243
-1020 296 -131 18 -634 27 -780 14z"/>
<path d="M6025 11564 c-234 -24 -381 -53 -552 -109 -784 -257 -1310 -969
-1532 -2072 -37 -183 -81 -484 -81 -554 l0 -29 112 56 c226 113 470 195 703
234 171 29 433 24 560 -10 332 -90 542 -317 634 -685 52 -208 111 -592 132
-848 17 -217 7 -624 -20 -799 -48 -313 -118 -530 -309 -958 -89 -202 -252
-649 -252 -695 0 -6 35 -10 92 -10 256 0 491 -167 600 -426 57 -136 57 -145
51 -845 -10 -1109 31 -1944 113 -2324 47 -214 215 -504 364 -627 136 -113 296
-170 500 -180 187 -8 403 26 644 104 280 90 450 195 582 358 152 189 229 409
299 865 112 730 261 1963 275 2290 9 207 18 266 51 370 29 89 71 160 136 230
69 75 140 122 246 163 l84 32 -109 140 c-157 200 -229 314 -324 509 -45 94
-146 286 -224 426 -515 931 -741 1550 -740 2028 1 281 75 490 235 660 138 147
308 234 557 284 102 21 141 23 391 23 152 0 277 4 277 8 0 5 -20 56 -44 115
-207 503 -504 942 -892 1323 -550 538 -1181 841 -1944 935 -119 14 -531 27
-615 18z"/>
<path d="M2445 11524 c-1192 -130 -1776 -927 -1742 -2374 7 -308 46 -584 156
-1130 203 -1006 479 -1974 772 -2708 390 -977 805 -1499 1137 -1432 134 28
238 112 456 370 186 220 520 600 678 771 75 81 139 152 142 158 5 7 -37 58
-103 127 -260 270 -427 617 -482 999 -19 133 -15 382 9 580 43 350 58 713 42
1050 -28 605 -25 757 21 1125 75 603 254 1180 494 1595 116 201 216 339 363
503 53 59 78 94 70 97 -55 20 -241 74 -383 110 -319 82 -671 142 -954 165
-183 14 -518 11 -676 -6z"/>
<path d="M8995 8809 c-554 -70 -702 -418 -489 -1149 94 -325 291 -756 598
-1313 137 -249 195 -360 256 -494 18 -40 36 -73 40 -73 14 0 78 186 104 300
57 256 57 457 1 956 -68 597 -67 739 5 1233 36 249 66 518 58 526 -2 2 -55 8
-118 14 -133 13 -354 12 -455 0z m163 -164 c59 -18 92 -53 92 -99 0 -62 -90
-169 -182 -218 -64 -33 -193 -33 -263 1 -63 32 -131 99 -140 140 -15 69 61
135 195 170 92 24 227 27 298 6z"/>
<path d="M4715 8741 c-260 -47 -568 -169 -784 -310 l-93 -62 6 -42 c14 -106
28 -622 22 -832 -6 -225 -27 -510 -47 -650 -42 -297 -25 -526 56 -772 156
-469 555 -824 1010 -898 112 -18 184 -19 189 -2 71 241 189 564 286 782 169
379 229 565 272 840 25 169 34 499 19 705 -23 301 -104 777 -156 916 -68 181
-194 289 -381 329 -92 20 -275 18 -399 -4z m434 -187 c131 -29 231 -107 231
-179 0 -111 -198 -240 -339 -221 -152 21 -327 192 -307 300 20 106 195 149
415 100z"/>
<path d="M9547 4750 c-49 -15 -106 -40 -127 -54 -72 -47 -111 -145 -125 -308
-9 -109 -3 -122 78 -147 262 -81 863 -36 1227 91 108 38 290 131 400 204 79
52 202 146 197 150 -1 1 -45 -6 -97 -16 -171 -33 -372 -59 -547 -71 -355 -24
-670 31 -840 146 -29 19 -58 35 -65 35 -7 -1 -53 -14 -101 -30z"/>
<path d="M5472 4725 c-44 -19 -113 -92 -241 -250 -196 -244 -261 -302 -416
-376 -115 -55 -235 -91 -490 -149 -99 -22 -209 -50 -244 -61 -60 -20 -63 -23
-45 -36 94 -72 351 -131 605 -140 268 -10 449 25 654 127 130 64 221 128 319
224 95 94 184 211 197 259 35 130 -57 320 -184 381 -69 33 -114 39 -155 21z"/>
</g>
</svg>
