<?xml version="1.0" standalone="no"?>
<!DOCTYPE svg PUBLIC "-//W3C//DTD SVG 20010904//EN"
 "http://www.w3.org/TR/2001/REC-SVG-20010904/DTD/svg10.dtd">
<svg version="1.0" xmlns="http://www.w3.org/2000/svg"
 width="200.000000pt" height="200.000000pt" viewBox="0 0 200.000000 200.000000"
 preserveAspectRatio="xMidYMid meet">
<metadata>
Created by potrace 1.16, written by Peter Selinger 2001-2019
</metadata>
<g transform="translate(0.000000,200.000000) scale(0.100000,-0.100000)"
fill="#FFF" stroke="none">
<path d="M579 1811 c-112 -36 -164 -171 -140 -360 6 -50 14 -104 17 -120 6
-26 3 -30 -32 -41 -64 -21 -171 -80 -218 -121 -114 -100 -114 -238 0 -338 47
-41 154 -100 218 -121 36 -11 38 -14 32 -44 -32 -158 -30 -284 5 -367 38 -87
113 -127 211 -114 66 9 189 73 261 135 32 27 64 50 71 50 7 0 21 -10 32 -21
31 -35 138 -107 200 -136 80 -36 172 -38 227 -5 82 51 119 181 98 339 -7 48
-15 102 -18 119 -5 30 -2 33 34 44 61 20 167 78 213 118 46 39 90 120 90 166
0 59 -24 110 -75 161 -49 50 -153 111 -228 135 -36 11 -38 14 -33 44 32 172
30 284 -6 369 -36 83 -114 126 -208 113 -65 -9 -174 -64 -255 -129 -38 -31
-75 -57 -81 -57 -6 0 -19 10 -30 21 -31 34 -137 107 -195 134 -59 27 -149 39
-190 26z m191 -112 c59 -31 170 -115 170 -129 0 -4 -26 -39 -57 -76 -32 -38
-67 -81 -78 -96 -17 -24 -33 -29 -120 -44 -55 -9 -112 -19 -126 -21 -24 -5
-27 -2 -37 53 -19 90 -15 231 7 279 10 22 25 46 34 53 44 37 114 31 207 -19z
m668 19 c33 -28 52 -91 52 -177 0 -100 -17 -211 -34 -211 -6 0 -42 6 -81 14
-38 8 -90 17 -115 20 -42 6 -50 12 -97 74 -28 37 -63 78 -77 91 -14 14 -26 30
-26 36 0 17 105 100 171 135 92 49 162 55 207 18z m-378 -273 l51 -60 -56 -3
c-30 -2 -79 -2 -109 0 l-54 3 51 63 c28 34 54 61 59 60 4 -2 30 -30 58 -63z
m59 -142 l54 -6 48 -76 c27 -42 66 -109 87 -149 l37 -72 -40 -77 c-22 -41 -61
-108 -87 -148 l-46 -73 -86 -7 c-47 -4 -125 -4 -172 0 l-86 7 -49 76 c-27 43
-66 110 -87 150 l-37 72 40 77 c22 41 61 109 87 149 43 67 50 73 85 77 67 7
196 7 252 0z m-405 -40 c-10 -16 -37 -61 -60 -101 l-41 -73 -27 73 c-14 40
-26 78 -26 85 0 9 101 35 164 42 4 1 0 -11 -10 -26z m659 7 c37 -7 67 -15 67
-19 0 -3 -12 -41 -27 -84 l-27 -77 -39 67 c-21 38 -48 83 -59 102 -20 32 -20
33 -2 28 10 -3 49 -11 87 -17z m-878 -67 c3 -16 22 -67 41 -115 l35 -88 -35
-87 c-19 -49 -38 -100 -41 -115 -4 -16 -13 -28 -19 -28 -7 0 -49 18 -94 39
-94 46 -166 108 -182 157 -16 48 1 93 56 144 41 38 192 120 220 120 6 0 15
-12 19 -27z m1123 -12 c45 -22 101 -59 126 -81 82 -76 82 -144 0 -220 -41 -38
-192 -120 -220 -120 -6 0 -15 12 -19 28 -3 15 -22 66 -41 115 l-35 87 35 88
c19 48 38 99 41 115 4 15 13 27 19 27 7 0 49 -18 94 -39z m-892 -478 c-6 -7
-166 32 -166 41 0 6 12 43 27 83 l27 72 57 -97 c31 -53 56 -98 55 -99z m688
123 c14 -37 26 -74 26 -81 0 -8 -30 -18 -82 -28 -46 -8 -84 -15 -84 -14 -2 3
111 196 113 194 1 -1 13 -33 27 -71z m-789 -180 c39 -8 90 -17 115 -20 42 -6
50 -12 97 -74 28 -37 63 -78 77 -91 14 -14 26 -30 26 -37 0 -18 -136 -119
-200 -148 -64 -30 -134 -34 -169 -10 -41 29 -61 89 -61 190 0 101 17 204 34
204 6 0 43 -6 81 -14z m854 -43 c6 -31 11 -97 11 -147 0 -101 -20 -161 -61
-190 -36 -25 -105 -20 -174 13 -65 31 -184 116 -192 137 -3 8 16 37 42 66 25
28 60 71 77 95 26 36 37 43 77 49 25 3 73 12 106 19 103 21 101 22 114 -42z
m-398 -30 c-17 -21 -42 -51 -56 -68 l-25 -30 -35 40 c-19 22 -44 52 -56 68
l-20 27 111 0 112 0 -31 -37z"/>
<path d="M915 1173 c-70 -37 -105 -94 -105 -173 0 -109 79 -190 185 -190 83 0
145 37 176 105 32 69 19 165 -29 218 -48 54 -163 74 -227 40z m169 -92 c26
-27 31 -39 31 -81 0 -43 -5 -54 -33 -82 -28 -28 -39 -33 -82 -33 -43 0 -54 5
-82 33 -28 28 -33 39 -33 81 0 52 25 92 70 112 37 16 96 3 129 -30z"/>
</g>
</svg>
