<?xml version="1.0" standalone="no"?>
<!DOCTYPE svg PUBLIC "-//W3C//DTD SVG 20010904//EN"
 "http://www.w3.org/TR/2001/REC-SVG-20010904/DTD/svg10.dtd">
<svg version="1.0" xmlns="http://www.w3.org/2000/svg"
 width="300.000000pt" height="300.000000pt" viewBox="0 0 300.000000 300.000000"
 preserveAspectRatio="xMidYMid meet">
<metadata>
Created by potrace 1.16, written by Peter Selinger 2001-2019
</metadata>
<g transform="translate(0.000000,300.000000) scale(0.100000,-0.100000)"
fill="#FFF" stroke="none">
<path d="M1405 2404 c-80 -8 -191 -37 -254 -65 -72 -33 -75 -33 -65 -17 4 7 3
8 -5 4 -6 -4 -9 -11 -6 -16 3 -4 -6 -15 -20 -24 -29 -19 -39 -20 -29 -4 5 7 3
8 -5 4 -7 -5 -10 -11 -7 -14 8 -7 -44 -62 -58 -62 -5 0 1 12 15 28 13 15 5 9
-19 -13 -23 -21 -42 -41 -42 -44 0 -2 9 4 20 14 11 10 20 14 20 8 0 -13 -45
-55 -52 -48 -3 3 -11 -3 -19 -12 -13 -16 -12 -17 4 -4 9 7 17 9 17 3 0 -11
-30 -38 -39 -35 -3 1 -8 -1 -11 -4 -3 -4 1 -3 9 2 9 5 12 3 9 -6 -3 -8 -10
-13 -16 -12 -6 2 -9 -3 -6 -11 3 -8 0 -17 -7 -22 -8 -5 -10 -3 -4 6 5 8 4 11
-3 6 -6 -4 -9 -12 -6 -19 2 -7 -7 -40 -22 -73 -14 -32 -33 -81 -41 -109 -8
-27 -20 -53 -25 -56 -5 -3 -3 -9 6 -12 9 -4 16 -2 16 4 0 13 120 139 132 139
5 0 6 -6 2 -12 -4 -8 -3 -10 2 -5 5 5 9 14 9 20 0 14 116 73 160 82 23 5 26 4
15 -4 -12 -9 -11 -11 8 -11 13 0 20 4 17 10 -11 17 46 23 117 11 75 -12 167
-50 189 -78 10 -12 10 -15 2 -9 -19 11 -16 1 4 -15 11 -10 14 -10 9 -1 -11 19
9 14 27 -6 10 -10 14 -22 10 -27 -5 -4 -3 -5 3 -2 6 3 48 -33 95 -81 l84 -87
-85 80 -85 80 95 -98 c52 -53 97 -97 99 -97 2 0 -4 9 -14 20 -10 11 -13 20 -7
20 5 0 21 -12 34 -27 13 -16 33 -33 44 -39 10 -6 19 -16 19 -22 0 -6 4 -14 9
-19 5 -5 6 -3 2 5 -10 16 0 15 29 -4 14 -9 23 -20 20 -24 -3 -5 0 -12 6 -16 8
-4 9 -3 5 4 -10 17 -6 16 65 -17 35 -16 72 -31 82 -35 10 -3 15 -10 12 -16 -3
-5 -1 -10 4 -10 6 0 11 4 11 10 0 5 6 8 13 6 6 -3 25 -7 41 -11 23 -5 27 -8
15 -16 -12 -7 -11 -9 4 -9 9 0 17 3 17 8 0 4 78 7 173 7 129 0 186 5 230 17
31 9 57 12 57 7 0 -5 5 -9 11 -9 5 0 8 4 4 9 -3 6 3 15 14 20 24 14 34 14 26
1 -3 -5 7 -5 25 1 16 6 33 15 36 21 4 6 -2 5 -14 -1 -39 -21 -37 -11 3 14 45
27 60 31 49 13 -4 -8 -3 -10 2 -5 5 5 9 12 9 15 0 13 16 32 26 32 6 0 7 -5 3
-12 -4 -7 -3 -8 5 -4 6 4 9 11 7 15 -6 9 88 104 96 96 3 -3 11 2 19 12 9 11
10 14 2 9 -20 -12 -16 -1 27 65 39 61 91 184 105 249 7 30 6 33 -7 22 -8 -6
-17 -10 -20 -7 -3 3 -11 -3 -19 -12 -13 -16 -12 -17 4 -4 36 28 15 -6 -31 -52
-46 -45 -72 -61 -56 -34 5 8 2 8 -9 -2 -20 -16 -23 -26 -4 -15 8 5 8 2 -2 -9
-15 -19 -36 -23 -25 -5 4 7 3 8 -5 4 -6 -4 -9 -12 -5 -17 3 -5 -21 -22 -53
-37 -53 -24 -69 -27 -173 -27 -104 0 -120 3 -173 27 -32 15 -56 32 -53 37 4 5
1 13 -5 17 -8 4 -9 3 -5 -4 11 -18 -10 -14 -25 5 -12 15 -12 16 1 8 9 -5 8 0
-4 13 -21 25 -36 31 -16 7 7 -8 8 -15 4 -15 -13 0 -206 195 -199 201 2 3 -10
19 -27 35 -18 16 -26 21 -19 12 7 -10 9 -18 4 -18 -13 0 -45 35 -38 42 3 3 -3
11 -12 19 -16 13 -17 12 -4 -3 7 -10 9 -18 3 -18 -11 0 -29 20 -32 35 -1 6 -4
12 -7 15 -4 3 -3 -1 2 -9 5 -9 3 -12 -6 -9 -8 3 -14 10 -14 16 0 5 -4 14 -9
19 -5 5 -6 3 -2 -4 9 -17 1 -16 -35 2 -16 9 -27 20 -24 25 3 6 -1 7 -9 4 -8
-3 -28 2 -45 10 -77 40 -313 72 -436 60z"/>
<path d="M550 1485 c-81 -18 -143 -40 -197 -71 -45 -26 -58 -30 -48 -14 3 6 4
10 0 10 -3 0 -10 -11 -15 -25 -5 -14 -14 -25 -20 -25 -6 0 -8 5 -4 12 4 7 3 8
-5 4 -6 -4 -9 -11 -6 -15 5 -9 -85 -97 -96 -94 -4 1 -13 -5 -21 -14 -9 -12 -9
-15 0 -9 6 4 12 2 12 -3 0 -6 -4 -11 -10 -11 -5 0 -10 -4 -10 -10 0 -5 -14
-31 -30 -57 -32 -50 -83 -175 -95 -233 -7 -30 -6 -33 7 -22 8 6 17 10 20 7 3
-3 11 3 19 12 13 16 12 17 -3 4 -10 -7 -18 -9 -18 -3 0 12 129 132 142 132 5
0 6 -5 2 -12 -4 -7 -3 -8 5 -4 6 4 9 11 6 16 -3 5 12 18 34 30 45 22 55 25 46
10 -3 -5 -1 -10 4 -10 6 0 11 8 11 18 0 14 2 15 10 2 8 -13 11 -13 22 3 12 16
26 18 113 15 82 -3 110 -9 158 -31 32 -15 56 -31 53 -36 -4 -5 -1 -13 5 -17 8
-4 9 -3 5 4 -11 18 10 14 25 -5 12 -15 12 -16 -1 -8 -9 5 -8 0 4 -13 21 -25
36 -31 16 -7 -7 8 -9 15 -4 15 13 0 189 -182 186 -192 -1 -4 1 -7 6 -6 9 4 62
-37 62 -48 0 -4 -12 3 -27 17 l-28 24 23 -26 c13 -15 31 -26 40 -25 9 0 17 -4
17 -11 0 -6 4 -15 9 -20 5 -5 6 -3 2 5 -4 6 -3 12 3 12 10 0 26 -19 26 -32 0
-3 4 -10 9 -15 5 -5 6 -2 1 6 -5 9 -3 12 6 9 8 -3 14 -10 14 -15 0 -6 4 -15 9
-20 5 -5 6 -3 2 5 -9 16 -1 15 35 -3 16 -9 27 -20 24 -25 -3 -6 1 -7 9 -4 8 3
28 -2 45 -10 66 -34 202 -59 333 -60 69 -1 124 -4 121 -9 -2 -4 6 -7 19 -7 17
0 19 3 9 9 -9 6 13 14 65 26 44 9 108 30 143 46 72 33 75 33 65 17 -4 -7 -3
-8 5 -4 6 4 9 11 6 16 -3 4 6 15 20 24 29 19 39 20 29 4 -5 -7 -3 -8 5 -4 7 5
10 11 7 14 -8 7 44 62 58 62 5 0 -1 -12 -15 -27 -13 -16 -5 -10 19 12 23 21
42 41 42 44 0 2 -9 -4 -20 -14 -11 -10 -20 -14 -20 -8 0 13 45 55 52 48 3 -3
11 3 19 12 13 16 12 17 -3 4 -11 -8 -18 -9 -18 -3 0 11 19 27 32 27 3 0 10 4
15 9 5 5 2 6 -6 1 -9 -5 -12 -3 -9 6 3 8 11 13 17 11 7 -1 10 2 6 7 -3 6 5 32
19 58 27 54 88 223 81 223 -3 0 -35 -32 -71 -70 -60 -63 -97 -91 -78 -57 4 7
3 9 -2 4 -5 -5 -9 -14 -9 -20 0 -19 -125 -76 -192 -88 -102 -18 -271 24 -314
78 -12 14 -12 16 1 8 13 -8 13 -7 1 8 -15 18 -26 23 -16 7 3 -5 2 -10 -3 -10
-12 0 -43 35 -37 41 2 3 -44 52 -102 110 -59 57 -99 94 -89 82 11 -13 15 -23
9 -23 -13 0 -65 55 -58 62 3 3 -3 11 -12 19 -16 13 -17 12 -4 -3 8 -11 9 -18
3 -18 -11 0 -27 19 -27 32 0 3 -4 10 -9 15 -5 5 -6 3 -2 -4 10 -17 0 -16 -29
3 -14 9 -23 20 -20 24 3 5 0 12 -6 16 -8 4 -9 3 -5 -4 10 -17 6 -16 -65 18
-110 50 -170 62 -344 66 -115 3 -178 -1 -225 -11z"/>
</g>
</svg>
